<?xml version="1.0" standalone="no"?>
<!DOCTYPE svg PUBLIC "-//W3C//DTD SVG 20010904//EN"
 "http://www.w3.org/TR/2001/REC-SVG-20010904/DTD/svg10.dtd">
<svg version="1.0" xmlns="http://www.w3.org/2000/svg"
 width="512.000000pt" height="512.000000pt" viewBox="0 0 512.000000 512.000000"
 preserveAspectRatio="xMidYMid meet">

<g transform="translate(0.000000,512.000000) scale(0.100000,-0.100000)"
fill="#000000" stroke="none">
<path d="M1098 3453 c-23 -27 -28 -51 -19 -76 5 -12 59 -85 120 -161 61 -77
111 -140 111 -141 0 -2 -109 40 -242 91 -134 52 -253 94 -265 94 -54 0 -86
-87 -45 -122 9 -9 103 -49 207 -90 190 -74 190 -74 235 -60 76 23 192 41 263
42 37 0 67 3 67 6 0 7 -283 359 -323 402 -35 37 -84 43 -109 15z"/>
</g>
</svg>
