<svg width="472" height="43" viewBox="0 0 472 43" fill="none" xmlns="http://www.w3.org/2000/svg">
<path d="M20.484 28.736C20.124 29.816 19.404 30.908 18.324 32.012C17.268 33.092 15.924 33.992 14.292 34.712C12.684 35.408 10.92 35.756 9 35.756C6.072 35.756 3.924 35.048 2.556 33.632C1.188 32.192 0.504 30.356 0.504 28.124C0.504 24.956 1.212 22.088 2.628 19.52C4.044 16.928 5.952 14.9 8.352 13.436C10.752 11.948 13.344 11.204 16.128 11.204C17.232 11.204 18.24 11.456 19.152 11.96C20.064 12.464 20.784 13.196 21.312 14.156C21.84 15.092 22.104 16.196 22.104 17.468C22.104 18.188 21.828 18.8 21.276 19.304C20.748 19.808 20.028 20.06 19.116 20.06C18.396 20.06 17.904 19.868 17.64 19.484C17.4 19.1 17.28 18.608 17.28 18.008L17.316 16.856C17.316 16.424 17.076 16.004 16.596 15.596C16.116 15.188 15.672 14.984 15.264 14.984C13.92 14.984 12.444 15.596 10.836 16.82C9.228 18.02 7.872 19.652 6.768 21.716C5.664 23.756 5.112 25.976 5.112 28.376C5.112 29.48 5.544 30.38 6.408 31.076C7.272 31.772 8.364 32.12 9.684 32.12C10.116 32.12 10.68 31.976 11.376 31.688C12.072 31.4 12.708 31.04 13.284 30.608C13.884 30.176 14.28 29.756 14.472 29.348C14.76 28.748 15.168 28.076 15.696 27.332C16.224 26.588 16.752 26.216 17.28 26.216C18.504 26.216 19.332 26.48 19.764 27.008C20.22 27.536 20.46 28.112 20.484 28.736ZM40.4648 6.884C40.8008 6.38 41.4368 5.672 42.3728 4.76C43.3328 3.848 44.2688 3.044 45.1808 2.348C46.1168 1.628 46.7168 1.268 46.9808 1.268C47.4848 1.268 48.0608 1.496 48.7088 1.952C49.3568 2.408 49.6808 2.828 49.6808 3.212C49.6808 3.524 49.5128 3.836 49.1768 4.148C48.8408 4.46 48.1568 4.976 47.1248 5.696C45.6608 6.728 44.5448 7.448 43.7768 7.856C43.0088 8.24 42.3128 8.432 41.6888 8.432C41.2328 8.432 40.8968 8.348 40.6808 8.18C40.4648 8.012 40.3568 7.724 40.3568 7.316C40.3568 7.124 40.3928 6.98 40.4648 6.884ZM38.1968 27.008C35.0528 27.536 32.5448 28.016 30.6728 28.448C30.0968 29.36 29.7248 29.972 29.5568 30.284C29.0528 31.172 28.5968 31.916 28.1888 32.516C27.8048 33.092 27.3848 33.608 26.9288 34.064C26.4248 34.568 26.0048 34.928 25.6688 35.144C25.3568 35.36 24.9848 35.468 24.5528 35.468C23.8328 35.468 23.1968 35.312 22.6448 35C22.1168 34.664 21.8528 34.328 21.8528 33.992C21.9008 33.944 22.1648 33.416 22.6448 32.408C23.1248 31.376 24.0128 30.092 25.3088 28.556C25.3088 28.364 25.2488 28.124 25.1288 27.836C25.0088 27.548 24.9488 27.38 24.9488 27.332C24.9488 26.636 26.0408 25.796 28.2248 24.812C29.4488 22.988 30.7328 21.188 32.0768 19.412C33.4448 17.636 35.1128 15.536 37.0808 13.112C37.5608 12.512 38.1728 12.02 38.9168 11.636C39.6608 11.252 40.4048 11.06 41.1488 11.06C41.9168 11.06 42.4928 11.132 42.8768 11.276C43.2608 11.42 43.5008 11.612 43.5968 11.852C43.7168 12.092 43.7768 12.428 43.7768 12.86C43.6808 13.58 43.6208 14.12 43.5968 14.48C43.2368 17.384 42.9608 19.88 42.7688 21.968C42.6008 24.032 42.5168 26.096 42.5168 28.16C42.5168 30.056 42.6008 31.796 42.7688 33.38C42.6968 33.956 42.4448 34.484 42.0128 34.964C41.5808 35.42 41.0768 35.648 40.5008 35.648C39.3968 35.648 38.6648 35.372 38.3048 34.82C37.9688 34.268 37.8008 33.332 37.8008 32.012C37.8008 31.052 37.9328 29.384 38.1968 27.008ZM33.5168 24.308C33.9488 24.212 34.6088 24.104 35.4968 23.984L38.3768 23.552C38.5928 20.216 38.8448 17.816 39.1328 16.352C38.1968 17.456 36.3248 20.108 33.5168 24.308ZM66.3938 30.032C66.0338 31.112 65.3618 32.132 64.3778 33.092C63.3938 34.028 62.1218 34.796 60.5618 35.396C59.0258 35.996 57.2858 36.296 55.3418 36.296C52.4138 36.296 50.2658 35.588 48.8978 34.172C47.5298 32.732 46.8458 30.896 46.8458 28.664C46.8458 25.472 47.5058 22.556 48.8258 19.916C50.1698 17.252 51.9938 15.164 54.2978 13.652C56.6018 12.116 59.1338 11.348 61.8938 11.348C62.9978 11.348 64.0058 11.6 64.9178 12.104C65.8298 12.608 66.5498 13.34 67.0778 14.3C67.6058 15.236 67.8698 16.34 67.8698 17.612C67.8698 18.332 67.5938 18.944 67.0418 19.448C66.5138 19.952 65.7938 20.204 64.8818 20.204C64.1618 20.204 63.6698 20.012 63.4058 19.628C63.1658 19.244 63.0458 18.752 63.0458 18.152L63.0818 17C63.0818 16.568 62.8418 16.148 62.3618 15.74C61.8818 15.332 61.4378 15.128 61.0298 15.128C59.7098 15.128 58.2938 15.764 56.7818 17.036C55.2698 18.308 53.9978 20 52.9658 22.112C51.9578 24.224 51.4538 26.492 51.4538 28.916C51.4538 30.02 51.8858 30.92 52.7498 31.616C53.6138 32.312 54.7058 32.66 56.0258 32.66C56.7698 32.66 57.6098 32.468 58.5458 32.084C59.5058 31.7 60.1178 31.22 60.3818 30.644C60.4058 30.572 60.5258 30.272 60.7418 29.744C60.9578 29.192 61.2818 28.688 61.7138 28.232C62.1698 27.752 62.6618 27.512 63.1898 27.512C64.4138 27.512 65.2418 27.776 65.6738 28.304C66.1298 28.832 66.3698 29.408 66.3938 30.032ZM74.4227 11.996C74.5187 11.588 74.7827 11.312 75.2147 11.168C75.6707 11.024 76.2227 10.952 76.8707 10.952C77.6387 10.952 78.1547 11.036 78.4187 11.204C78.7067 11.348 78.8987 11.564 78.9947 11.852C78.8267 12.428 78.1307 15.548 76.9067 21.212C80.9867 20.564 84.3227 20.084 86.9147 19.772L88.6067 11.996C88.7027 11.588 88.9667 11.312 89.3987 11.168C89.8547 11.024 90.4067 10.952 91.0547 10.952C91.8227 10.952 92.3387 11.036 92.6027 11.204C92.8907 11.348 93.0827 11.564 93.1787 11.852C93.0347 12.452 92.3027 15.836 90.9827 22.004C89.6627 28.22 88.8587 31.94 88.5707 33.164C88.2347 34.484 87.7187 35.144 87.0227 35.144C84.7907 35.144 83.6747 34.628 83.6747 33.596L84.1067 31.832C84.2747 31.04 84.5147 29.984 84.8267 28.664C85.1627 27.344 85.5707 25.652 86.0507 23.588C84.0827 23.804 81.3107 24.212 77.7347 24.812C76.9187 24.956 76.3667 25.052 76.0787 25.1C75.7667 26.54 75.5987 27.332 75.5747 27.476C75.0227 30.284 74.6267 32.18 74.3867 33.164C74.2667 33.716 74.0867 34.184 73.8467 34.568C73.6067 34.952 73.2707 35.144 72.8387 35.144C70.6067 35.144 69.4907 34.628 69.4907 33.596C69.4907 33.596 69.6587 32.852 69.9947 31.364C70.3547 29.996 70.8707 27.824 71.5427 24.848C71.3987 24.632 71.3267 24.368 71.3267 24.056C71.3267 23.744 71.3987 23.444 71.5427 23.156C71.6867 22.844 71.8787 22.592 72.1187 22.4L74.4227 11.996ZM123.879 28.736C123.519 29.816 122.799 30.908 121.719 32.012C120.663 33.092 119.319 33.992 117.687 34.712C116.079 35.408 114.315 35.756 112.395 35.756C109.467 35.756 107.319 35.048 105.951 33.632C104.583 32.192 103.899 30.356 103.899 28.124C103.899 24.956 104.607 22.088 106.023 19.52C107.439 16.928 109.347 14.9 111.747 13.436C114.147 11.948 116.739 11.204 119.523 11.204C120.627 11.204 121.635 11.456 122.547 11.96C123.459 12.464 124.179 13.196 124.707 14.156C125.235 15.092 125.499 16.196 125.499 17.468C125.499 18.188 125.223 18.8 124.671 19.304C124.143 19.808 123.423 20.06 122.511 20.06C121.791 20.06 121.299 19.868 121.035 19.484C120.795 19.1 120.675 18.608 120.675 18.008L120.711 16.856C120.711 16.424 120.471 16.004 119.991 15.596C119.511 15.188 119.067 14.984 118.659 14.984C117.315 14.984 115.839 15.596 114.231 16.82C112.623 18.02 111.267 19.652 110.163 21.716C109.059 23.756 108.507 25.976 108.507 28.376C108.507 29.48 108.939 30.38 109.803 31.076C110.667 31.772 111.759 32.12 113.079 32.12C113.511 32.12 114.075 31.976 114.771 31.688C115.467 31.4 116.103 31.04 116.679 30.608C117.279 30.176 117.675 29.756 117.867 29.348C118.155 28.748 118.563 28.076 119.091 27.332C119.619 26.588 120.147 26.216 120.675 26.216C121.899 26.216 122.727 26.48 123.159 27.008C123.615 27.536 123.855 28.112 123.879 28.736ZM128.487 25.64C127.887 25.544 127.443 25.364 127.155 25.1C126.867 24.836 126.723 24.512 126.723 24.128C126.723 23.456 126.903 22.94 127.263 22.58C127.647 22.196 128.403 21.908 129.531 21.716L131.439 13.94C131.703 12.884 131.979 12.188 132.267 11.852C132.579 11.492 133.131 11.312 133.923 11.312C134.571 11.312 135.159 11.384 135.687 11.528C136.239 11.672 136.527 11.888 136.551 12.176C136.551 12.176 136.455 12.584 136.263 13.4C135.807 15.032 135.183 17.564 134.391 20.996C137.943 20.276 141.315 19.784 144.507 19.52L146.343 11.996C146.439 11.588 146.703 11.312 147.135 11.168C147.591 11.024 148.143 10.952 148.791 10.952C149.535 10.952 150.039 11.036 150.303 11.204C150.591 11.348 150.795 11.564 150.915 11.852C150.507 13.172 148.839 20.276 145.911 33.164C145.575 34.484 145.047 35.144 144.327 35.144C142.119 35.144 141.015 34.628 141.015 33.596C141.039 33.404 141.111 33.104 141.231 32.696C141.351 32.264 141.471 31.784 141.591 31.256C142.551 27.632 143.211 24.98 143.571 23.3C138.843 23.876 135.495 24.38 133.527 24.812L131.331 33.704C131.163 34.4 130.911 34.868 130.575 35.108C130.263 35.348 129.627 35.468 128.667 35.468C127.923 35.468 127.371 35.336 127.011 35.072C126.675 34.832 126.507 34.412 126.507 33.812C126.507 33.548 126.543 33.296 126.615 33.056L128.487 25.64ZM160.564 35.756C157.708 35.756 155.572 34.832 154.156 32.984C152.74 31.136 152.032 28.628 152.032 25.46C152.032 22.844 152.596 20.42 153.724 18.188C154.852 15.956 156.424 14.18 158.44 12.86C160.456 11.54 162.724 10.88 165.244 10.88C167.692 10.88 169.648 11.72 171.112 13.4C172.6 15.056 173.344 17.54 173.344 20.852C173.344 23.204 172.792 25.544 171.688 27.872C170.608 30.176 169.096 32.072 167.152 33.56C165.208 35.024 163.012 35.756 160.564 35.756ZM161.068 32.516C162.244 32.516 163.396 31.856 164.524 30.536C165.652 29.216 166.564 27.524 167.26 25.46C167.98 23.396 168.34 21.296 168.34 19.16C168.34 17.528 168.064 16.352 167.512 15.632C166.984 14.888 166.036 14.516 164.668 14.516C163.156 14.516 161.812 15.176 160.636 16.496C159.46 17.816 158.548 19.46 157.9 21.428C157.252 23.396 156.928 25.304 156.928 27.152C156.928 28.232 157.12 29.18 157.504 29.996C157.912 30.812 158.428 31.436 159.052 31.868C159.7 32.3 160.372 32.516 161.068 32.516ZM158.224 42.74C157.672 42.74 157.144 42.512 156.64 42.056C156.136 41.624 155.884 41.132 155.884 40.58C155.884 39.764 156.22 39.056 156.892 38.456C157.564 37.856 158.308 37.556 159.124 37.556C159.724 37.556 160.264 37.808 160.744 38.312C161.224 38.84 161.464 39.404 161.464 40.004C161.464 40.772 161.14 41.42 160.492 41.948C159.844 42.476 159.088 42.74 158.224 42.74ZM183.547 17.792C182.803 20.096 182.239 22.688 181.855 25.568C181.495 28.424 181.291 31.136 181.243 33.704C181.219 34.376 181.015 34.832 180.631 35.072C180.247 35.336 179.551 35.468 178.543 35.468C177.799 35.468 177.247 35.336 176.887 35.072C176.527 34.832 176.347 34.412 176.347 33.812C176.347 32.324 176.587 29.72 177.067 26C177.547 22.256 178.315 18.812 179.371 15.668C180.451 12.524 181.819 10.952 183.475 10.952C184.123 10.952 184.699 11.024 185.203 11.168C185.707 11.312 185.983 11.528 186.031 11.816C186.007 11.816 187.711 17.072 191.143 27.584L194.419 11.996C194.419 11.228 194.947 10.844 196.003 10.844C196.603 10.844 197.191 11.156 197.767 11.78C198.367 12.404 198.787 12.932 199.027 13.364C198.619 15.02 198.115 17.288 197.515 20.168C196.915 23.048 196.519 24.92 196.327 25.784C195.559 29.528 194.995 32.204 194.635 33.812C194.299 35.132 193.783 35.792 193.087 35.792C191.479 35.792 190.363 35.432 189.739 34.712L183.547 17.792ZM226.815 24.488C222.087 25.064 218.739 25.568 216.771 26L214.827 33.704C214.659 34.4 214.407 34.868 214.071 35.108C213.759 35.348 213.123 35.468 212.163 35.468C211.419 35.468 210.867 35.336 210.507 35.072C210.171 34.832 210.003 34.412 210.003 33.812C210.003 33.548 210.039 33.296 210.111 33.056L215.043 13.58C215.307 12.524 215.583 11.828 215.871 11.492C216.183 11.132 216.735 10.952 217.527 10.952C218.175 10.952 218.763 11.024 219.291 11.168C219.843 11.312 220.131 11.528 220.155 11.816C220.155 11.864 219.999 12.512 219.687 13.76C219.207 15.608 218.523 18.416 217.635 22.184C221.187 21.464 224.559 20.972 227.751 20.708L229.407 14.012C229.647 13.052 229.971 12.344 230.379 11.888C230.811 11.408 231.387 11.096 232.107 10.952C232.995 11.12 233.571 11.264 233.835 11.384C234.123 11.48 234.315 11.636 234.411 11.852C234.099 12.74 233.859 13.568 233.691 14.336C233.547 15.08 233.463 15.524 233.439 15.668C233.127 17.348 232.755 19.064 232.323 20.816C233.259 21.224 233.727 21.776 233.727 22.472C233.727 23.168 232.983 23.756 231.495 24.236C231.231 25.196 230.739 27.284 230.019 30.5C229.851 31.388 229.611 32.492 229.299 33.812C228.963 35.132 228.435 35.792 227.715 35.792C225.507 35.792 224.403 35.276 224.403 34.244C224.403 34.028 225.207 30.776 226.815 24.488ZM250.576 27.008C247.432 27.536 244.924 28.016 243.052 28.448C242.476 29.36 242.104 29.972 241.936 30.284C241.432 31.172 240.976 31.916 240.568 32.516C240.184 33.092 239.764 33.608 239.308 34.064C238.804 34.568 238.384 34.928 238.048 35.144C237.736 35.36 237.364 35.468 236.932 35.468C236.212 35.468 235.576 35.312 235.024 35C234.496 34.664 234.232 34.328 234.232 33.992C234.28 33.944 234.544 33.416 235.024 32.408C235.504 31.376 236.392 30.092 237.688 28.556C237.688 28.364 237.628 28.124 237.508 27.836C237.388 27.548 237.328 27.38 237.328 27.332C237.328 26.636 238.42 25.796 240.604 24.812C241.828 22.988 243.112 21.188 244.456 19.412C245.824 17.636 247.492 15.536 249.46 13.112C249.94 12.512 250.552 12.02 251.296 11.636C252.04 11.252 252.784 11.06 253.528 11.06C254.296 11.06 254.872 11.132 255.256 11.276C255.64 11.42 255.88 11.612 255.976 11.852C256.096 12.092 256.156 12.428 256.156 12.86C256.06 13.58 256 14.12 255.976 14.48C255.616 17.384 255.34 19.88 255.148 21.968C254.98 24.032 254.896 26.096 254.896 28.16C254.896 30.056 254.98 31.796 255.148 33.38C255.076 33.956 254.824 34.484 254.392 34.964C253.96 35.42 253.456 35.648 252.88 35.648C251.776 35.648 251.044 35.372 250.684 34.82C250.348 34.268 250.18 33.332 250.18 32.012C250.18 31.052 250.312 29.384 250.576 27.008ZM245.896 24.308C246.328 24.212 246.988 24.104 247.876 23.984L250.756 23.552C250.972 20.216 251.224 17.816 251.512 16.352C250.576 17.456 248.704 20.108 245.896 24.308ZM243.7 42.74C243.148 42.74 242.62 42.512 242.116 42.056C241.612 41.624 241.36 41.132 241.36 40.58C241.36 39.764 241.696 39.056 242.368 38.456C243.04 37.856 243.784 37.556 244.6 37.556C245.2 37.556 245.74 37.808 246.22 38.312C246.7 38.84 246.94 39.404 246.94 40.004C246.94 40.772 246.616 41.42 245.968 41.948C245.32 42.476 244.564 42.74 243.7 42.74ZM268.261 32.84C268.069 33.68 267.769 34.328 267.361 34.784C266.977 35.24 266.341 35.468 265.453 35.468C264.709 35.468 264.157 35.336 263.797 35.072C263.461 34.832 263.293 34.412 263.293 33.812C263.293 33.548 263.329 33.296 263.401 33.056L267.793 15.632C267.769 15.632 266.989 15.716 265.453 15.884C263.605 16.028 262.453 16.148 261.997 16.244C261.517 16.076 261.145 15.824 260.881 15.488C260.641 15.128 260.521 14.708 260.521 14.228C260.521 13.844 260.653 13.484 260.917 13.148C261.205 12.788 261.541 12.524 261.925 12.356C263.125 12.116 264.805 11.912 266.965 11.744C269.125 11.576 271.897 11.396 275.281 11.204C277.009 11.132 278.173 11.06 278.773 10.988C279.157 11.156 279.481 11.42 279.745 11.78C280.033 12.116 280.177 12.476 280.177 12.86C280.177 13.292 279.961 13.712 279.529 14.12C279.097 14.528 278.605 14.816 278.053 14.984L271.753 15.308C272.017 15.404 272.149 15.728 272.149 16.28C272.149 16.568 272.125 16.784 272.077 16.928C271.669 18.752 271.105 21.116 270.385 24.02C269.689 26.924 269.221 28.892 268.981 29.924C268.837 30.524 268.705 31.064 268.585 31.544C268.465 32.024 268.357 32.456 268.261 32.84ZM301.324 11.168C303.052 11.168 304.504 11.588 305.68 12.428C306.88 13.268 307.768 14.372 308.344 15.74C308.944 17.108 309.244 18.584 309.244 20.168C309.244 20.576 309.232 20.876 309.208 21.068C308.992 23.948 308.272 26.492 307.048 28.7C305.824 30.884 304.204 32.576 302.188 33.776C300.196 34.976 297.952 35.576 295.456 35.576C294.76 35.576 293.908 35.492 292.9 35.324C292.516 35.252 292.06 35 291.532 34.568C291.028 34.112 290.596 33.596 290.236 33.02C289.876 32.444 289.696 31.928 289.696 31.472C289.696 31.208 289.732 30.956 289.804 30.716L290.776 26.9L290.128 26.972H289.912C289.36 26.972 288.904 26.816 288.544 26.504C288.208 26.192 288.016 25.82 287.968 25.388L287.932 24.956C287.932 24.332 288.136 23.852 288.544 23.516C288.952 23.156 289.66 22.928 290.668 22.832L291.892 22.724L293.584 16.136C292.216 16.544 291.064 17.072 290.128 17.72C289.84 17.432 289.624 17.072 289.48 16.64C289.336 16.208 289.264 15.764 289.264 15.308C289.264 14.78 289.48 14.312 289.912 13.904C291.04 13.184 292.6 12.572 294.592 12.068C295.048 10.892 295.792 10.304 296.824 10.304C297.52 10.304 298.048 10.4 298.408 10.592C298.768 10.784 298.948 11.036 298.948 11.348C299.404 11.276 299.8 11.228 300.136 11.204C300.496 11.18 300.892 11.168 301.324 11.168ZM304.672 22.508C304.768 21.908 304.816 21.236 304.816 20.492C304.816 18.812 304.444 17.492 303.7 16.532C302.956 15.548 301.804 15.056 300.244 15.056C299.572 15.056 298.96 15.104 298.408 15.2L297.292 19.808L296.716 22.184C297.652 22.04 298.288 21.956 298.624 21.932H298.84C299.416 21.932 299.884 22.112 300.244 22.472C300.604 22.808 300.808 23.228 300.856 23.732V23.912C300.856 24.416 300.664 24.848 300.28 25.208C299.92 25.568 299.416 25.82 298.768 25.964L295.636 26.396C295.132 28.316 294.688 30.044 294.304 31.58C294.88 31.724 295.504 31.796 296.176 31.796C297.856 31.796 299.296 31.34 300.496 30.428C301.696 29.492 302.632 28.316 303.304 26.9C304 25.484 304.456 24.02 304.672 22.508ZM313.696 16.352C313.216 16.184 312.844 15.932 312.58 15.596C312.34 15.236 312.22 14.816 312.22 14.336C312.22 13.64 312.688 13.088 313.624 12.68C317.056 11.984 320.512 11.492 323.992 11.204C324.928 11.612 325.396 12.164 325.396 12.86C325.396 13.292 325.18 13.712 324.748 14.12C324.316 14.528 323.824 14.816 323.272 14.984L321.292 15.236C320.884 17.036 319.948 20.912 318.484 26.864L317.476 30.896L320.248 30.608C321.184 31.016 321.652 31.568 321.652 32.264C321.652 32.696 321.436 33.116 321.004 33.524C320.572 33.932 320.08 34.22 319.528 34.388L318.088 34.568C314.56 34.952 311.848 35.348 309.952 35.756C309.472 35.588 309.112 35.336 308.872 35C308.608 34.64 308.476 34.22 308.476 33.74C308.476 33.044 308.944 32.492 309.88 32.084C311.08 31.844 311.992 31.676 312.616 31.58L316.576 15.848C315.592 15.992 314.632 16.16 313.696 16.352ZM329.373 3.068C328.653 2.588 328.173 2.24 327.933 2.024C327.693 1.784 327.573 1.556 327.573 1.34C327.573 1.1 327.921 0.823998 328.617 0.511998C329.337 0.175998 329.889 0.00799775 330.273 0.00799775C330.537 0.00799775 331.029 0.463998 331.749 1.376C332.493 2.288 333.141 3.164 333.693 4.004C333.741 4.1 333.765 4.196 333.765 4.292C333.765 4.58 333.693 4.784 333.549 4.904C333.405 5.024 333.165 5.084 332.829 5.084C332.517 5.084 332.205 5 331.893 4.832C331.605 4.664 331.173 4.364 330.597 3.932L329.373 3.068ZM332.217 8.54C332.217 8.276 332.253 8.036 332.325 7.82C332.421 7.604 332.637 7.364 332.973 7.1L333.765 6.452C335.565 4.964 336.801 3.968 337.473 3.464C337.833 3.176 338.373 3.032 339.093 3.032C339.573 3.032 339.993 3.152 340.353 3.392C340.737 3.608 341.205 4.076 341.757 4.796L343.593 7.172C343.833 7.484 343.953 7.784 343.953 8.072C343.953 8.456 343.761 8.792 343.377 9.08C343.017 9.344 342.585 9.476 342.081 9.476C341.601 9.476 341.145 9.224 340.713 8.72L338.733 6.344C337.293 7.592 336.225 8.468 335.529 8.972C334.857 9.476 334.365 9.728 334.053 9.728C333.573 9.728 333.141 9.62 332.757 9.404C332.397 9.188 332.217 8.9 332.217 8.54ZM344.097 10.664C344.961 11.12 345.393 11.696 345.393 12.392C345.393 12.824 345.153 13.232 344.673 13.616C344.217 13.976 343.701 14.228 343.125 14.372L341.541 14.48C340.821 14.528 339.849 14.6 338.625 14.696C337.401 14.768 335.961 14.876 334.305 15.02L332.685 21.464C334.197 21.224 335.445 21.032 336.429 20.888C337.437 20.744 338.553 20.624 339.777 20.528C340.713 20.936 341.181 21.488 341.181 22.184C341.181 22.616 340.965 23.036 340.533 23.444C340.101 23.852 339.609 24.14 339.057 24.308L337.005 24.524C334.821 24.764 333.069 25.004 331.749 25.244C331.461 26.564 331.053 28.232 330.525 30.248L330.237 31.364C333.429 30.764 336.513 30.344 339.489 30.104C340.425 30.512 340.893 31.064 340.893 31.76C340.893 32.192 340.677 32.612 340.245 33.02C339.813 33.428 339.321 33.716 338.769 33.884C334.209 34.412 330.993 34.856 329.121 35.216C328.905 35.36 328.437 35.432 327.717 35.432C327.045 35.432 326.445 35.12 325.917 34.496C325.413 33.872 325.161 33.224 325.161 32.552C325.161 32.288 325.197 32.036 325.269 31.796L329.373 15.56H329.265C329.241 15.296 329.073 14.972 328.761 14.588C328.737 14.54 328.641 14.396 328.473 14.156C328.305 13.892 328.221 13.64 328.221 13.4C328.269 12.704 328.725 12.152 329.589 11.744C331.389 11.504 333.909 11.276 337.149 11.06C340.389 10.82 342.705 10.688 344.097 10.664ZM347.722 13.724C347.986 12.668 348.262 11.972 348.55 11.636C348.862 11.276 349.414 11.096 350.206 11.096C350.854 11.096 351.406 11.168 351.862 11.312C352.342 11.456 352.594 11.672 352.618 11.96C352.738 12.032 352.798 12.224 352.798 12.536C352.798 13.04 352.666 13.808 352.402 14.84C352.138 15.872 351.754 17.216 351.25 18.872C350.674 20.864 350.206 22.556 349.846 23.948C349.486 25.34 349.258 26.528 349.162 27.512L349.126 28.016C349.126 28.976 349.366 29.768 349.846 30.392C350.326 30.992 350.914 31.436 351.61 31.724C352.306 31.988 352.99 32.12 353.662 32.12C355.198 32.12 356.41 31.772 357.298 31.076C358.186 30.356 358.858 29.384 359.314 28.16C359.794 26.912 360.238 25.22 360.646 23.084C360.862 22.004 361.198 20.444 361.654 18.404C362.11 16.364 362.41 15.128 362.554 14.696C362.77 14.072 362.902 13.592 362.95 13.256C363.094 12.704 363.238 12.284 363.382 11.996C363.55 11.708 363.802 11.456 364.138 11.24C364.234 11.216 364.366 11.192 364.534 11.168C364.702 11.12 364.834 11.096 364.93 11.096C365.746 11.096 366.418 11.168 366.946 11.312C367.498 11.456 367.822 11.636 367.918 11.852C367.558 13.268 367.054 15.38 366.406 18.188C365.782 20.972 365.326 23.18 365.038 24.812C363.718 32.108 359.758 35.756 353.158 35.756C351.478 35.756 349.978 35.42 348.658 34.748C347.338 34.076 346.294 33.152 345.526 31.976C344.782 30.776 344.41 29.42 344.41 27.908C344.41 27.14 344.518 26.348 344.734 25.532L347.722 13.724ZM399.018 10.952C399.906 11.12 400.482 11.264 400.746 11.384C401.034 11.48 401.226 11.636 401.322 11.852C400.818 13.796 400.158 16.556 399.342 20.132C398.526 23.684 397.974 26.072 397.686 27.296C397.158 29.744 396.666 31.916 396.21 33.812C395.874 35.132 395.346 35.792 394.626 35.792C392.73 35.792 391.65 35.408 391.386 34.64L391.314 34.712L385.446 19.016L383.214 28.088C382.782 29.744 382.314 31.616 381.81 33.704C381.642 34.4 381.378 34.868 381.018 35.108C380.682 35.348 380.034 35.468 379.074 35.468C378.33 35.468 377.778 35.336 377.418 35.072C377.082 34.832 376.914 34.412 376.914 33.812C376.914 33.548 376.95 33.296 377.022 33.056L381.954 13.58C382.218 12.524 382.494 11.828 382.782 11.492C383.094 11.132 383.646 10.952 384.438 10.952C385.086 10.952 385.662 11.024 386.166 11.168C386.67 11.312 386.934 11.528 386.958 11.816V11.924L392.754 27.98C394.314 20.444 395.31 16.016 395.742 14.696C396.078 13.688 396.534 12.848 397.11 12.176C397.686 11.504 398.322 11.096 399.018 10.952ZM419.118 21.86C420.102 21.86 420.822 22.04 421.278 22.4C421.758 22.736 422.058 23.156 422.178 23.66C422.298 24.14 422.358 24.764 422.358 25.532C422.358 27.548 421.806 29.336 420.702 30.896C419.598 32.432 418.158 33.632 416.382 34.496C414.606 35.336 412.722 35.756 410.73 35.756C407.85 35.756 405.738 34.952 404.394 33.344C403.05 31.736 402.378 29.768 402.378 27.44C402.378 24.608 402.93 21.944 404.034 19.448C405.138 16.952 406.566 14.96 408.318 13.472C410.094 11.96 411.918 11.204 413.79 11.204C415.542 11.204 417.042 11.468 418.29 11.996C419.538 12.524 420.474 13.22 421.098 14.084C421.722 14.924 422.034 15.8 422.034 16.712C422.034 17.456 421.794 18.032 421.314 18.44C420.834 18.848 420.138 19.052 419.226 19.052C418.506 19.052 417.99 18.788 417.678 18.26C417.39 17.708 417.246 17.108 417.246 16.46C417.246 16.148 417.054 15.824 416.67 15.488C416.31 15.152 415.854 14.984 415.302 14.984C413.982 14.984 412.662 15.584 411.342 16.784C410.022 17.96 408.942 19.58 408.102 21.644C407.262 23.684 406.842 25.928 406.842 28.376C406.842 29.504 407.238 30.416 408.03 31.112C408.822 31.784 409.866 32.12 411.162 32.12C412.098 32.12 413.106 31.832 414.186 31.256C415.266 30.68 416.178 29.912 416.922 28.952C417.666 27.992 418.038 26.96 418.038 25.856C417.798 25.88 417.498 25.952 417.138 26.072C416.682 26.216 416.262 26.324 415.878 26.396C415.518 26.468 415.014 26.504 414.366 26.504C413.598 26.504 413.022 26.408 412.638 26.216C412.278 26 412.098 25.628 412.098 25.1C412.098 24.74 412.182 24.32 412.35 23.84C412.542 23.36 412.77 23.012 413.034 22.796C414.21 22.484 415.23 22.256 416.094 22.112C416.958 21.944 417.966 21.86 419.118 21.86ZM445.94 18.908C445.94 22.004 445.484 24.836 444.572 27.404C443.66 29.948 442.316 31.976 440.54 33.488C438.764 35 436.64 35.756 434.168 35.756C432.248 35.756 430.58 35.324 429.164 34.46C427.772 33.596 426.704 32.384 425.96 30.824C425.216 29.264 424.844 27.476 424.844 25.46C424.844 22.844 425.408 20.42 426.536 18.188C427.664 15.956 429.236 14.18 431.252 12.86C433.268 11.54 435.536 10.88 438.056 10.88C439.472 10.88 440.816 11 442.088 11.24C443.384 11.48 444.032 11.9 444.032 12.5C444.032 12.74 443.936 13.088 443.744 13.544C443.576 13.976 443.384 14.264 443.168 14.408C443.72 14.456 444.2 14.756 444.608 15.308C445.04 15.836 445.364 16.448 445.58 17.144C445.82 17.84 445.94 18.428 445.94 18.908ZM441.152 19.16C441.152 18.608 441.032 18.164 440.792 17.828C440.576 17.468 440.276 17.108 439.892 16.748C439.844 16.7 439.748 16.604 439.604 16.46C439.46 16.316 439.388 16.184 439.388 16.064C439.388 15.968 439.412 15.836 439.46 15.668C439.532 15.5 439.568 15.38 439.568 15.308C439.568 15.188 439.34 15.068 438.884 14.948C438.452 14.804 437.972 14.732 437.444 14.732C435.932 14.732 434.588 15.38 433.412 16.676C432.236 17.948 431.324 19.556 430.676 21.5C430.052 23.42 429.74 25.304 429.74 27.152C429.74 28.232 429.932 29.18 430.316 29.996C430.724 30.812 431.24 31.436 431.864 31.868C432.512 32.3 433.184 32.516 433.88 32.516C435.056 32.516 436.208 31.856 437.336 30.536C438.464 29.216 439.376 27.524 440.072 25.46C440.792 23.396 441.152 21.296 441.152 19.16ZM456.36 17.792C455.616 20.096 455.052 22.688 454.668 25.568C454.308 28.424 454.104 31.136 454.056 33.704C454.032 34.376 453.828 34.832 453.444 35.072C453.06 35.336 452.364 35.468 451.356 35.468C450.612 35.468 450.06 35.336 449.7 35.072C449.34 34.832 449.16 34.412 449.16 33.812C449.16 32.324 449.4 29.72 449.88 26C450.36 22.256 451.128 18.812 452.184 15.668C453.264 12.524 454.632 10.952 456.288 10.952C456.936 10.952 457.512 11.024 458.016 11.168C458.52 11.312 458.796 11.528 458.844 11.816C458.82 11.816 460.524 17.072 463.956 27.584L467.232 11.996C467.232 11.228 467.76 10.844 468.816 10.844C469.416 10.844 470.004 11.156 470.58 11.78C471.18 12.404 471.6 12.932 471.84 13.364C471.432 15.02 470.928 17.288 470.328 20.168C469.728 23.048 469.332 24.92 469.14 25.784C468.372 29.528 467.808 32.204 467.448 33.812C467.112 35.132 466.596 35.792 465.9 35.792C464.292 35.792 463.176 35.432 462.552 34.712L456.36 17.792Z" fill="#D97706"/>
</svg>
