<svg width="372" height="37" viewBox="0 0 372 37" fill="none" xmlns="http://www.w3.org/2000/svg">
<path d="M2.86 27.776C2.86 27.512 2.896 27.26 2.968 27.02L7.072 11.108C6.376 11.636 5.584 12.152 4.696 12.656C3.832 13.136 3.268 13.376 3.004 13.376C2.668 13.376 2.284 13.268 1.852 13.052C1.444 12.836 1.084 12.584 0.772 12.296C0.484 12.008 0.34 11.768 0.34 11.576C0.34 11.504 0.352 11.456 0.376 11.432C0.616 11.12 1.24 10.604 2.248 9.884C3.28 9.14 4.612 8.228 6.244 7.148C7.828 6.092 8.764 5.456 9.052 5.24C9.268 5.096 9.508 5.024 9.772 5.024C10.324 5.024 10.84 5.252 11.32 5.708C11.824 6.164 12.076 6.692 12.076 7.292C12.076 7.316 12.088 7.388 12.112 7.508C12.16 7.604 12.184 7.736 12.184 7.904C12.184 7.952 12.16 8.12 12.112 8.408C11.752 10.4 11.104 13.244 10.168 16.94C9.256 20.612 8.74 22.712 8.62 23.24C8.092 25.256 7.792 26.444 7.72 26.804C7.528 27.644 7.228 28.292 6.82 28.748C6.436 29.204 5.8 29.432 4.912 29.432C4.192 29.432 3.664 29.312 3.328 29.072C3.016 28.832 2.86 28.4 2.86 27.776ZM22.6496 29.756C21.0176 29.756 19.6136 29.36 18.4376 28.568C17.2616 27.776 16.3736 26.72 15.7736 25.4C15.1736 24.056 14.8736 22.58 14.8736 20.972C14.8736 20.108 14.9576 19.268 15.1256 18.452C15.8696 14.492 17.2616 11.324 19.3016 8.948C21.3416 6.572 24.1736 5.384 27.7976 5.384C30.0536 5.384 31.7696 6.104 32.9456 7.544C34.1216 8.96 34.7096 11.048 34.7096 13.808C34.7096 16.328 34.2776 18.812 33.4136 21.26C32.5496 23.684 31.2056 25.712 29.3816 27.344C27.5816 28.952 25.3376 29.756 22.6496 29.756ZM22.5416 26.336C23.9816 26.336 25.2776 25.676 26.4296 24.356C27.6056 23.036 28.5056 21.368 29.1296 19.352C29.7776 17.336 30.1016 15.332 30.1016 13.34C30.1016 10.628 28.9736 9.272 26.7176 9.272C25.3976 9.272 24.1736 9.92 23.0456 11.216C21.9176 12.488 21.0176 14.072 20.3456 15.968C19.6976 17.84 19.3736 19.592 19.3736 21.224C19.3736 22.928 19.6376 24.212 20.1656 25.076C20.7176 25.916 21.5096 26.336 22.5416 26.336ZM45.3957 29.756C43.7637 29.756 42.3597 29.36 41.1837 28.568C40.0077 27.776 39.1197 26.72 38.5197 25.4C37.9197 24.056 37.6197 22.58 37.6197 20.972C37.6197 20.108 37.7037 19.268 37.8717 18.452C38.6157 14.492 40.0077 11.324 42.0477 8.948C44.0877 6.572 46.9197 5.384 50.5437 5.384C52.7997 5.384 54.5157 6.104 55.6917 7.544C56.8677 8.96 57.4557 11.048 57.4557 13.808C57.4557 16.328 57.0237 18.812 56.1597 21.26C55.2957 23.684 53.9517 25.712 52.1277 27.344C50.3277 28.952 48.0837 29.756 45.3957 29.756ZM45.2877 26.336C46.7277 26.336 48.0237 25.676 49.1757 24.356C50.3517 23.036 51.2517 21.368 51.8757 19.352C52.5237 17.336 52.8477 15.332 52.8477 13.34C52.8477 10.628 51.7197 9.272 49.4637 9.272C48.1437 9.272 46.9197 9.92 45.7917 11.216C44.6637 12.488 43.7637 14.072 43.0917 15.968C42.4437 17.84 42.1197 19.592 42.1197 21.224C42.1197 22.928 42.3837 24.212 42.9117 25.076C43.4637 25.916 44.2557 26.336 45.2877 26.336ZM84.3418 6.86C84.2458 6.956 83.9458 7.364 83.4418 8.084L82.6498 9.2L71.0578 25.076C71.0098 25.124 70.5178 25.868 69.5818 27.308C68.6698 28.748 67.6378 29.468 66.4858 29.468C65.9098 29.468 65.4298 29.324 65.0458 29.036C64.6858 28.748 64.5058 28.388 64.5058 27.956C64.5058 27.596 65.0218 26.672 66.0538 25.184C67.1098 23.696 68.6818 21.536 70.7698 18.704C71.1778 18.152 71.8018 17.312 72.6418 16.184C73.5058 15.032 74.1778 14.108 74.6578 13.412C76.6498 10.604 78.3778 8.336 79.8418 6.608C81.3058 4.88 82.4098 4.016 83.1538 4.016C83.7298 4.016 84.1978 4.16 84.5578 4.448C84.9178 4.712 85.0978 5.072 85.0978 5.528C85.0978 5.792 85.0378 6.008 84.9178 6.176C84.8218 6.344 84.6298 6.572 84.3418 6.86ZM65.4778 18.056C62.2378 18.056 60.6178 16.232 60.6178 12.584C60.6178 11.168 60.9298 9.872 61.5538 8.696C62.1778 7.52 63.0658 6.584 64.2178 5.888C65.3698 5.192 66.6898 4.844 68.1778 4.844C69.5458 4.844 70.6378 5.24 71.4538 6.032C72.2698 6.824 72.6778 7.952 72.6778 9.416C72.6778 10.784 72.4138 12.128 71.8858 13.448C71.3818 14.768 70.5898 15.872 69.5098 16.76C68.4298 17.624 67.0858 18.056 65.4778 18.056ZM65.8018 14.816C66.4018 14.816 66.9418 14.564 67.4218 14.06C67.9018 13.556 68.2738 12.92 68.5378 12.152C68.8258 11.384 68.9698 10.628 68.9698 9.884C68.9698 9.452 68.8138 9.092 68.5018 8.804C68.2138 8.516 67.8058 8.372 67.2778 8.372C66.7258 8.372 66.2338 8.612 65.8018 9.092C65.3938 9.572 65.0698 10.172 64.8298 10.892C64.6138 11.588 64.5058 12.248 64.5058 12.872C64.5058 14.168 64.9378 14.816 65.8018 14.816ZM81.6058 29.468C78.3658 29.468 76.7458 27.644 76.7458 23.996C76.7458 22.58 77.0578 21.284 77.6818 20.108C78.3058 18.932 79.1938 17.996 80.3458 17.3C81.4978 16.604 82.8178 16.256 84.3058 16.256C85.6738 16.256 86.7658 16.652 87.5818 17.444C88.3978 18.236 88.8058 19.364 88.8058 20.828C88.8058 22.196 88.5418 23.54 88.0138 24.86C87.5098 26.18 86.7178 27.284 85.6378 28.172C84.5578 29.036 83.2138 29.468 81.6058 29.468ZM81.9298 26.228C82.5298 26.228 83.0698 25.976 83.5498 25.472C84.0298 24.968 84.4018 24.332 84.6658 23.564C84.9538 22.796 85.0978 22.04 85.0978 21.296C85.0978 20.864 84.9418 20.504 84.6298 20.216C84.3418 19.928 83.9338 19.784 83.4058 19.784C82.8538 19.784 82.3618 20.024 81.9298 20.504C81.5218 20.984 81.1978 21.584 80.9578 22.304C80.7418 23 80.6338 23.66 80.6338 24.284C80.6338 25.58 81.0658 26.228 81.9298 26.228ZM106.181 17.12C106.733 16.04 107.489 15.116 108.449 14.348C109.433 13.58 110.429 12.992 111.437 12.584C112.445 12.176 113.273 11.972 113.921 11.972C115.169 11.972 116.069 12.212 116.621 12.692C117.173 13.148 117.449 13.88 117.449 14.888C116.033 18.584 115.097 22.568 114.641 26.84L115.145 28.604C114.857 29.156 114.473 29.588 113.993 29.9C113.513 30.236 112.781 30.404 111.797 30.404C111.221 30.404 110.801 30.212 110.537 29.828C110.273 29.444 110.141 28.964 110.141 28.388C110.141 26.78 110.369 25.016 110.825 23.096C111.305 21.152 111.857 19.172 112.481 17.156C112.721 16.388 112.841 15.992 112.841 15.968C112.841 15.632 112.649 15.464 112.265 15.464C111.761 15.464 111.029 15.836 110.069 16.58C109.109 17.324 108.113 18.584 107.081 20.36C106.049 22.112 105.185 24.416 104.489 27.272C104.465 27.392 104.405 27.644 104.309 28.028C104.213 28.412 103.997 28.688 103.661 28.856C103.325 29.024 102.809 29.108 102.113 29.108C101.273 29.108 100.625 29.024 100.169 28.856C99.7131 28.664 99.4851 28.304 99.4851 27.776C102.629 15.416 104.573 7.688 105.317 4.592C105.293 4.28 105.269 3.872 105.245 3.368C105.245 2.84 105.245 2.432 105.245 2.144C105.317 1.808 105.569 1.556 106.001 1.388C106.457 1.196 106.913 1.1 107.369 1.1C108.137 1.1 108.785 1.304 109.313 1.712C109.841 2.12 110.129 2.636 110.177 3.26L106.181 17.12ZM133.304 27.128C133.352 27.752 133.436 28.316 133.556 28.82C133.508 28.964 133.292 29.108 132.908 29.252C132.548 29.396 132.236 29.468 131.972 29.468C131.108 29.468 130.484 29.336 130.1 29.072C129.74 28.832 129.56 28.46 129.56 27.956C129.56 27.476 129.608 26.996 129.704 26.516C129.176 27.236 128.396 27.836 127.364 28.316C126.356 28.772 125.54 29 124.916 29C123.308 29 121.964 28.532 120.884 27.596C119.828 26.66 119.3 25.16 119.3 23.096C119.3 21.152 119.756 19.328 120.668 17.624C121.604 15.896 122.888 14.516 124.52 13.484C126.152 12.428 127.964 11.9 129.956 11.9C130.34 11.9 130.844 12.008 131.468 12.224C132.092 12.416 132.716 12.764 133.34 13.268C133.988 13.748 134.528 14.372 134.96 15.14C135.152 15.14 135.38 15.236 135.644 15.428C135.908 15.62 136.04 15.812 136.04 16.004C136.04 16.22 136.004 16.436 135.932 16.652L133.304 27.128ZM131.684 17.048C131.54 16.52 131.252 16.076 130.82 15.716C130.412 15.356 130.04 15.176 129.704 15.176C128.6 15.176 127.556 15.572 126.572 16.364C125.612 17.132 124.832 18.092 124.232 19.244C123.632 20.396 123.332 21.488 123.332 22.52C123.332 23.528 123.452 24.356 123.692 25.004C123.932 25.652 124.4 25.976 125.096 25.976C125.696 25.976 126.38 25.796 127.148 25.436C127.94 25.076 128.636 24.596 129.236 23.996C129.86 23.372 130.268 22.724 130.46 22.052L131.684 17.048ZM124.664 36.74C124.112 36.74 123.584 36.512 123.08 36.056C122.576 35.624 122.324 35.132 122.324 34.58C122.324 33.764 122.66 33.056 123.332 32.456C124.004 31.856 124.748 31.556 125.564 31.556C126.164 31.556 126.704 31.808 127.184 32.312C127.664 32.84 127.904 33.404 127.904 34.004C127.904 34.772 127.58 35.42 126.932 35.948C126.284 36.476 125.528 36.74 124.664 36.74ZM142.914 25.04C142.914 25.592 143.058 26.036 143.346 26.372C143.634 26.684 144.042 26.84 144.57 26.84C145.29 26.84 145.878 26.636 146.334 26.228C146.814 25.796 147.318 25.196 147.846 24.428C148.23 23.876 148.542 23.48 148.782 23.24C149.022 23 149.298 22.88 149.61 22.88C150.234 22.88 150.678 22.964 150.942 23.132C151.206 23.276 151.338 23.588 151.338 24.068C151.338 24.284 151.314 24.548 151.266 24.86C151.218 25.148 151.158 25.364 151.086 25.508C150.51 26.732 149.562 27.788 148.242 28.676C146.946 29.564 145.47 30.008 143.814 30.008C142.158 30.008 140.91 29.612 140.07 28.82C139.23 28.004 138.81 26.852 138.81 25.364C138.81 25.148 138.918 24.584 139.134 23.672C139.35 22.76 139.626 21.668 139.962 20.396L140.97 16.292L138.774 16.472C138.486 16.472 138.27 16.364 138.126 16.148C137.982 15.932 137.91 15.668 137.91 15.356C137.91 14.756 138.126 14.156 138.558 13.556C138.606 13.484 138.846 13.412 139.278 13.34C139.71 13.268 140.238 13.196 140.862 13.124L141.834 13.016L143.058 7.76C143.298 7.136 143.658 6.656 144.138 6.32C144.642 5.96 145.11 5.78 145.542 5.78C146.022 5.78 146.43 5.924 146.766 6.212C147.102 6.5 147.282 6.836 147.306 7.22L146.01 12.62C146.946 12.5 147.81 12.404 148.602 12.332C149.418 12.236 150.054 12.188 150.51 12.188C151.422 12.188 151.878 12.716 151.878 13.772C151.878 14.18 151.698 14.552 151.338 14.888C151.002 15.2 150.63 15.392 150.222 15.464L145.182 15.968L142.914 25.04ZM181.517 8.48C179.117 17.696 177.725 23.288 177.341 25.256C177.197 25.976 177.125 26.528 177.125 26.912C177.125 27.56 177.197 28.196 177.341 28.82C177.293 28.964 177.101 29.108 176.765 29.252C176.453 29.396 176.165 29.468 175.901 29.468C175.421 29.468 174.893 29.408 174.317 29.288C173.741 29.168 173.381 29.036 173.237 28.892C173.021 28.7 172.913 28.316 172.913 27.74C172.913 27.308 172.961 26.9 173.057 26.516C172.553 27.236 171.785 27.836 170.753 28.316C169.745 28.772 168.929 29 168.305 29C164.633 29 162.797 27.02 162.797 23.06C162.797 21.332 163.181 19.604 163.949 17.876C164.741 16.148 165.857 14.72 167.297 13.592C168.761 12.464 170.453 11.9 172.373 11.9C172.901 11.9 173.489 12.116 174.137 12.548C174.785 12.956 175.313 13.424 175.721 13.952C175.841 13.424 176.177 12.044 176.729 9.812L176.945 8.948L173.309 9.344C173.141 9.368 172.925 9.38 172.661 9.38C171.725 9.38 171.221 9.056 171.149 8.408L171.113 7.976C171.113 7.352 171.317 6.872 171.725 6.536C172.133 6.176 172.841 5.948 173.849 5.852C174.281 5.804 174.593 5.78 174.785 5.78L177.845 5.456L178.601 2.324C178.697 1.964 178.973 1.676 179.429 1.46C179.909 1.22 180.413 1.1 180.941 1.1C181.373 1.1 181.841 1.196 182.345 1.388C182.849 1.58 183.101 1.856 183.101 2.216L182.417 4.952L182.813 4.916H183.029C184.277 4.916 184.949 5.384 185.045 6.32V6.5C185.045 7.028 184.865 7.448 184.505 7.76C184.145 8.048 183.629 8.228 182.957 8.3L181.517 8.48ZM174.929 17.3C174.785 16.772 174.437 16.292 173.885 15.86C173.357 15.404 172.925 15.176 172.589 15.176C171.485 15.176 170.453 15.536 169.493 16.256C168.533 16.976 167.765 17.912 167.189 19.064C166.637 20.216 166.361 21.404 166.361 22.628C166.361 23.54 166.529 24.356 166.865 25.076C167.201 25.796 167.717 26.156 168.413 26.156C169.013 26.156 169.709 25.964 170.501 25.58C171.317 25.172 172.037 24.656 172.661 24.032C173.285 23.384 173.669 22.724 173.813 22.052L174.929 17.3ZM185.813 7.616C185.813 6.872 186.041 6.212 186.497 5.636C186.977 5.06 187.637 4.772 188.477 4.772C189.365 4.772 190.133 5.048 190.781 5.6C191.453 6.152 191.789 6.776 191.789 7.472C191.789 8.168 191.453 8.768 190.781 9.272C190.109 9.776 189.329 10.028 188.441 10.028C187.577 10.028 186.917 9.812 186.461 9.38C186.029 8.924 185.813 8.336 185.813 7.616ZM189.593 13.988C188.321 19.172 187.349 23.072 186.677 25.688C186.581 26.072 186.533 26.492 186.533 26.948L186.569 27.956C186.569 28.364 186.437 28.652 186.173 28.82C185.933 28.988 185.405 29.084 184.589 29.108C183.797 29.108 183.197 29.024 182.789 28.856C182.381 28.688 182.177 28.328 182.177 27.776C182.177 27.512 182.477 26.108 183.077 23.564C183.701 21.02 184.541 17.708 185.597 13.628L184.769 12.548C184.697 12.476 184.661 12.392 184.661 12.296C184.661 12.056 184.925 11.864 185.453 11.72C185.981 11.552 186.713 11.468 187.649 11.468C188.465 11.468 188.981 11.708 189.197 12.188C189.437 12.644 189.569 13.244 189.593 13.988ZM198.822 4.016C198.87 4.112 198.894 4.208 198.894 4.304C198.894 4.592 198.822 4.796 198.678 4.916C198.534 5.036 198.294 5.096 197.958 5.096C197.646 5.096 197.334 5.012 197.022 4.844C196.734 4.676 196.302 4.376 195.726 3.944L194.502 3.08C193.782 2.6 193.302 2.252 193.062 2.036C192.822 1.796 192.702 1.568 192.702 1.352C192.702 1.112 193.05 0.835999 193.746 0.524C194.466 0.187998 195.018 0.0199976 195.402 0.0199976C195.666 0.0199976 196.158 0.475998 196.878 1.388C197.622 2.3 198.27 3.176 198.822 4.016ZM204.222 3.044C204.702 3.044 205.122 3.164 205.482 3.404C205.866 3.62 206.334 4.088 206.886 4.808L208.722 7.184C208.962 7.496 209.082 7.796 209.082 8.084C209.082 8.468 208.89 8.804 208.506 9.092C208.146 9.356 207.714 9.488 207.21 9.488C206.73 9.488 206.274 9.236 205.842 8.732L203.862 6.356C202.422 7.604 201.354 8.48 200.658 8.984C199.986 9.488 199.494 9.74 199.182 9.74C198.702 9.74 198.27 9.632 197.886 9.416C197.526 9.2 197.346 8.912 197.346 8.552C197.346 8.288 197.382 8.048 197.454 7.832C197.55 7.616 197.766 7.376 198.102 7.112L198.894 6.464C200.694 4.976 201.93 3.98 202.602 3.476C202.962 3.188 203.502 3.044 204.222 3.044ZM198.174 29.756C195.822 29.756 194.106 29.288 193.026 28.352C191.946 27.416 191.406 26.168 191.406 24.608C191.406 22.328 191.97 20.216 193.098 18.272C194.25 16.328 195.774 14.792 197.67 13.664C199.59 12.512 201.654 11.936 203.862 11.936C205.206 11.936 206.334 12.32 207.246 13.088C208.158 13.832 208.614 14.936 208.614 16.4C208.614 17.24 208.338 17.936 207.786 18.488C207.258 19.016 206.49 19.496 205.482 19.928C204.474 20.336 202.842 20.924 200.586 21.692C198.546 22.364 196.89 22.928 195.618 23.384C195.522 23.744 195.474 24.116 195.474 24.5C195.474 25.172 195.75 25.688 196.302 26.048C196.878 26.408 197.682 26.588 198.714 26.588C199.362 26.588 200.106 26.456 200.946 26.192C201.786 25.928 202.314 25.592 202.53 25.184C203.346 23.696 204.09 22.952 204.762 22.952C205.746 22.952 206.406 23.144 206.742 23.528C207.102 23.888 207.294 24.296 207.318 24.752C207.03 25.52 206.466 26.3 205.626 27.092C204.786 27.86 203.718 28.496 202.422 29C201.126 29.504 199.71 29.756 198.174 29.756ZM196.626 20.072C199.002 19.304 200.958 18.596 202.494 17.948C204.03 17.276 204.798 16.616 204.798 15.968C204.798 15.68 204.642 15.452 204.33 15.284C204.018 15.092 203.682 14.996 203.322 14.996C202.602 14.996 201.774 15.272 200.838 15.824C199.926 16.376 199.074 17.048 198.282 17.84C197.49 18.632 196.938 19.376 196.626 20.072ZM224.479 28.892C224.383 29.3 224.167 29.576 223.831 29.72C223.495 29.888 223.051 29.972 222.499 29.972C220.843 29.972 220.015 29.6 220.015 28.856L220.231 27.488C219.559 27.992 218.767 28.496 217.855 29C216.943 29.504 216.187 29.756 215.587 29.756C212.035 29.756 210.259 28.592 210.259 26.264C210.259 22.304 211.447 18.008 213.823 13.376C214.111 12.824 214.411 12.428 214.723 12.188C215.059 11.948 215.623 11.828 216.415 11.828C217.255 11.828 217.879 11.948 218.287 12.188C218.719 12.404 218.935 12.668 218.935 12.98C218.935 13.052 218.803 13.268 218.539 13.628C218.275 13.94 218.047 14.252 217.855 14.564C215.599 18.332 214.471 22.004 214.471 25.58C214.471 25.892 214.591 26.168 214.831 26.408C215.071 26.648 215.287 26.768 215.479 26.768C216.007 26.768 216.895 26.516 218.143 26.012C219.415 25.508 220.387 24.992 221.059 24.464L221.779 21.548C222.643 18.068 223.183 15.932 223.399 15.14C223.663 14.18 223.999 13.4 224.407 12.8C224.839 12.176 225.511 11.864 226.423 11.864C227.695 11.864 228.331 12.248 228.331 13.016C228.331 13.136 228.295 13.292 228.223 13.484C228.175 13.652 228.139 13.796 228.115 13.916L226.675 19.748C225.523 24.38 224.791 27.428 224.479 28.892ZM244.059 25.04C244.059 25.592 244.203 26.036 244.491 26.372C244.779 26.684 245.187 26.84 245.715 26.84C246.435 26.84 247.023 26.636 247.479 26.228C247.959 25.796 248.463 25.196 248.991 24.428C249.375 23.876 249.687 23.48 249.927 23.24C250.167 23 250.443 22.88 250.755 22.88C251.379 22.88 251.823 22.964 252.087 23.132C252.351 23.276 252.483 23.588 252.483 24.068C252.483 24.284 252.459 24.548 252.411 24.86C252.363 25.148 252.303 25.364 252.231 25.508C251.655 26.732 250.707 27.788 249.387 28.676C248.091 29.564 246.615 30.008 244.959 30.008C243.303 30.008 242.055 29.612 241.215 28.82C240.375 28.004 239.955 26.852 239.955 25.364C239.955 25.148 240.063 24.584 240.279 23.672C240.495 22.76 240.771 21.668 241.107 20.396L242.115 16.292L239.919 16.472C239.631 16.472 239.415 16.364 239.271 16.148C239.127 15.932 239.055 15.668 239.055 15.356C239.055 14.756 239.271 14.156 239.703 13.556C239.751 13.484 239.991 13.412 240.423 13.34C240.855 13.268 241.383 13.196 242.007 13.124L242.979 13.016L244.203 7.76C244.443 7.136 244.803 6.656 245.283 6.32C245.787 5.96 246.255 5.78 246.687 5.78C247.167 5.78 247.575 5.924 247.911 6.212C248.247 6.5 248.427 6.836 248.451 7.22L247.155 12.62C248.091 12.5 248.955 12.404 249.747 12.332C250.563 12.236 251.199 12.188 251.655 12.188C252.567 12.188 253.023 12.716 253.023 13.772C253.023 14.18 252.843 14.552 252.483 14.888C252.147 15.2 251.775 15.392 251.367 15.464L246.327 15.968L244.059 25.04ZM278.026 14.132C278.026 15.836 277.462 17.228 276.334 18.308C275.23 19.364 273.814 19.892 272.086 19.892C271.75 19.892 271.39 19.868 271.006 19.82C269.998 23.852 269.278 26.876 268.846 28.892C268.75 29.3 268.534 29.576 268.198 29.72C267.862 29.888 267.418 29.972 266.866 29.972C265.21 29.972 264.382 29.6 264.382 28.856L264.598 27.488C263.926 27.992 263.134 28.496 262.222 29C261.31 29.504 260.554 29.756 259.954 29.756C256.402 29.756 254.626 28.592 254.626 26.264C254.626 22.304 255.814 18.008 258.19 13.376C258.478 12.824 258.778 12.428 259.09 12.188C259.426 11.948 259.99 11.828 260.782 11.828C261.622 11.828 262.246 11.948 262.654 12.188C263.086 12.404 263.302 12.668 263.302 12.98C263.302 13.052 263.17 13.268 262.906 13.628C262.642 13.94 262.414 14.252 262.222 14.564C259.966 18.332 258.838 22.004 258.838 25.58C258.838 25.892 258.958 26.168 259.198 26.408C259.438 26.648 259.654 26.768 259.846 26.768C260.374 26.768 261.262 26.516 262.51 26.012C263.782 25.508 264.754 24.992 265.426 24.464L266.146 21.548C267.01 18.068 267.55 15.932 267.766 15.14C268.03 14.18 268.366 13.4 268.774 12.8C269.206 12.176 269.878 11.864 270.79 11.864C272.062 11.864 272.698 12.248 272.698 13.016C272.698 13.136 272.662 13.292 272.59 13.484C272.542 13.652 272.506 13.796 272.482 13.916L271.438 18.128C272.47 18.032 273.214 17.804 273.67 17.444C274.15 17.06 274.438 16.364 274.534 15.356V15.212C274.534 15.044 274.51 14.828 274.462 14.564C274.414 14.3 274.39 14.096 274.39 13.952C274.438 13.568 274.594 13.196 274.858 12.836C275.146 12.476 275.506 12.296 275.938 12.296H276.694C277.582 12.296 278.026 12.908 278.026 14.132ZM260.278 36.74C259.726 36.74 259.198 36.512 258.694 36.056C258.19 35.624 257.938 35.132 257.938 34.58C257.938 33.764 258.274 33.056 258.946 32.456C259.618 31.856 260.362 31.556 261.178 31.556C261.778 31.556 262.318 31.808 262.798 32.312C263.278 32.84 263.518 33.404 263.518 34.004C263.518 34.772 263.194 35.42 262.546 35.948C261.898 36.476 261.142 36.74 260.278 36.74ZM288.566 12.548C288.494 12.476 288.458 12.392 288.458 12.296C288.458 12.056 288.722 11.864 289.25 11.72C289.778 11.552 290.51 11.468 291.446 11.468C292.31 11.468 292.946 11.696 293.354 12.152C293.762 12.584 294.002 13.112 294.074 13.736L293.426 16.076C293.93 15.38 294.638 14.72 295.55 14.096C296.462 13.448 297.386 12.932 298.322 12.548C299.258 12.164 300.026 11.972 300.626 11.972C301.898 11.972 302.822 12.212 303.398 12.692C303.974 13.148 304.262 13.88 304.262 14.888C302.846 18.584 301.91 22.568 301.454 26.84L301.958 28.604C301.67 29.156 301.262 29.588 300.734 29.9C300.23 30.236 299.486 30.404 298.502 30.404C297.926 30.404 297.506 30.212 297.242 29.828C296.978 29.444 296.846 28.964 296.846 28.388C296.846 26.78 297.074 25.016 297.53 23.096C298.01 21.152 298.562 19.172 299.186 17.156C299.426 16.388 299.546 15.992 299.546 15.968C299.546 15.632 299.354 15.464 298.97 15.464C298.442 15.464 297.638 15.836 296.558 16.58C295.502 17.324 294.41 18.584 293.282 20.36C292.154 22.112 291.242 24.416 290.546 27.272C290.498 27.416 290.438 27.68 290.366 28.064C290.294 28.448 290.102 28.724 289.79 28.892C289.478 29.036 288.974 29.108 288.278 29.108C287.486 29.108 286.898 29.024 286.514 28.856C286.154 28.688 285.974 28.328 285.974 27.776C286.046 27.44 286.154 27.032 286.298 26.552C287.69 20.96 288.758 16.652 289.502 13.628L288.566 12.548ZM311.212 17.12C311.764 16.04 312.46 15.116 313.3 14.348C314.14 13.556 314.992 12.968 315.856 12.584C316.744 12.176 317.5 11.972 318.124 11.972C319.612 11.972 320.776 12.344 321.616 13.088C322.48 13.832 322.912 14.732 322.912 15.788L320.212 26.84V27.092C320.212 28.34 320.02 29.204 319.636 29.684C319.276 30.164 318.58 30.404 317.548 30.404C316.996 30.404 316.528 30.224 316.144 29.864C315.784 29.504 315.604 29.096 315.604 28.64C315.604 28.496 315.616 28.388 315.64 28.316C316.264 25.676 316.78 23.528 317.188 21.872C317.428 20.84 317.716 19.604 318.052 18.164C318.412 16.724 318.592 15.956 318.592 15.86C318.592 15.524 318.4 15.356 318.016 15.356C317.464 15.356 316.696 15.608 315.712 16.112C314.728 16.592 313.66 17.516 312.508 18.884C311.38 20.252 310.42 22.124 309.628 24.5C309.292 25.532 309.04 26.432 308.872 27.2L308.836 27.344C308.74 27.776 308.632 28.112 308.512 28.352C308.392 28.568 308.164 28.748 307.828 28.892C307.516 29.036 307.024 29.108 306.352 29.108C304.816 29.108 304.048 28.568 304.048 27.488C304.12 27.152 304.276 26.672 304.516 26.048C304.732 25.568 304.912 25.052 305.056 24.5L310.636 4.016C310.732 3.68 310.996 3.404 311.428 3.188C311.86 2.948 312.292 2.828 312.724 2.828C313.444 2.828 313.948 3.02 314.236 3.404C314.548 3.788 314.728 4.316 314.776 4.988L311.212 17.12ZM328.723 7.616C328.723 6.872 328.951 6.212 329.407 5.636C329.887 5.06 330.547 4.772 331.387 4.772C332.275 4.772 333.043 5.048 333.691 5.6C334.363 6.152 334.699 6.776 334.699 7.472C334.699 8.168 334.363 8.768 333.691 9.272C333.019 9.776 332.239 10.028 331.351 10.028C330.487 10.028 329.827 9.812 329.371 9.38C328.939 8.924 328.723 8.336 328.723 7.616ZM332.503 13.988C331.231 19.172 330.259 23.072 329.587 25.688C329.491 26.072 329.443 26.492 329.443 26.948L329.479 27.956C329.479 28.364 329.347 28.652 329.083 28.82C328.843 28.988 328.315 29.084 327.499 29.108C326.707 29.108 326.107 29.024 325.699 28.856C325.291 28.688 325.087 28.328 325.087 27.776C325.087 27.512 325.387 26.108 325.987 23.564C326.611 21.02 327.451 17.708 328.507 13.628L327.679 12.548C327.607 12.476 327.571 12.392 327.571 12.296C327.571 12.056 327.835 11.864 328.363 11.72C328.891 11.552 329.623 11.468 330.559 11.468C331.375 11.468 331.891 11.708 332.107 12.188C332.347 12.644 332.479 13.244 332.503 13.988ZM346.917 2.792C347.397 2.792 347.817 2.912 348.177 3.152C348.561 3.368 349.029 3.836 349.581 4.556L351.417 6.932C351.657 7.244 351.777 7.544 351.777 7.832C351.777 8.216 351.585 8.552 351.201 8.84C350.841 9.104 350.409 9.236 349.905 9.236C349.425 9.236 348.969 8.984 348.537 8.48L346.557 6.104C345.117 7.352 344.049 8.228 343.353 8.732C342.681 9.236 342.189 9.488 341.877 9.488C341.397 9.488 340.965 9.38 340.581 9.164C340.221 8.948 340.041 8.66 340.041 8.3C340.041 8.036 340.077 7.796 340.149 7.58C340.245 7.364 340.461 7.124 340.797 6.86L341.589 6.212C343.389 4.724 344.625 3.728 345.297 3.224C345.657 2.936 346.197 2.792 346.917 2.792ZM341.085 29.756C338.733 29.756 337.017 29.288 335.937 28.352C334.857 27.416 334.317 26.168 334.317 24.608C334.317 22.328 334.881 20.216 336.009 18.272C337.161 16.328 338.685 14.792 340.581 13.664C342.501 12.512 344.565 11.936 346.773 11.936C348.117 11.936 349.245 12.32 350.157 13.088C351.069 13.832 351.525 14.936 351.525 16.4C351.525 17.24 351.249 17.936 350.697 18.488C350.169 19.016 349.401 19.496 348.393 19.928C347.385 20.336 345.753 20.924 343.497 21.692C341.457 22.364 339.801 22.928 338.529 23.384C338.433 23.744 338.385 24.116 338.385 24.5C338.385 25.172 338.661 25.688 339.213 26.048C339.789 26.408 340.593 26.588 341.625 26.588C342.273 26.588 343.017 26.456 343.857 26.192C344.697 25.928 345.225 25.592 345.441 25.184C346.257 23.696 347.001 22.952 347.673 22.952C348.657 22.952 349.317 23.144 349.653 23.528C350.013 23.888 350.205 24.296 350.229 24.752C349.941 25.52 349.377 26.3 348.537 27.092C347.697 27.86 346.629 28.496 345.333 29C344.037 29.504 342.621 29.756 341.085 29.756ZM339.537 20.072C341.913 19.304 343.869 18.596 345.405 17.948C346.941 17.276 347.709 16.616 347.709 15.968C347.709 15.68 347.553 15.452 347.241 15.284C346.929 15.092 346.593 14.996 346.233 14.996C345.513 14.996 344.685 15.272 343.749 15.824C342.837 16.376 341.985 17.048 341.193 17.84C340.401 18.632 339.849 19.376 339.537 20.072ZM356.589 11.54C357.717 10.94 358.653 10.64 359.397 10.64C360.213 10.64 360.669 11.06 360.765 11.9L359.325 17.264C360.909 14.984 362.385 13.412 363.753 12.548C365.121 11.66 366.345 11.216 367.425 11.216C368.697 11.216 369.621 11.456 370.197 11.936C370.797 12.392 371.109 13.124 371.133 14.132C370.317 16.34 369.633 18.44 369.081 20.432C368.553 22.424 368.289 24.26 368.289 25.94V26.768C368.289 27.44 368.097 27.884 367.713 28.1C367.353 28.292 366.621 28.388 365.517 28.388C365.085 28.388 364.677 28.316 364.293 28.172C363.933 28.028 363.753 27.788 363.753 27.452C363.753 26.492 363.969 25.088 364.401 23.24C364.833 21.392 365.313 19.568 365.841 17.768C366.393 15.968 366.669 15.116 366.669 15.212C366.669 14.876 366.477 14.708 366.093 14.708C365.589 14.708 364.773 15.152 363.645 16.04C362.517 16.928 361.365 18.32 360.189 20.216C359.013 22.088 358.077 24.44 357.381 27.272C357.357 27.416 357.309 27.68 357.237 28.064C357.165 28.448 356.973 28.724 356.661 28.892C356.349 29.036 355.845 29.108 355.149 29.108C354.357 29.108 353.769 29.024 353.385 28.856C353.001 28.688 352.809 28.328 352.809 27.776L353.889 23.168C354.177 21.92 354.549 20.336 355.005 18.416C355.461 16.472 355.989 14.18 356.589 11.54Z" fill="#68A47F"/>
</svg>
