<svg width="344" height="38" viewBox="0 0 344 38" fill="none" xmlns="http://www.w3.org/2000/svg">
<path d="M17.46 18.488C12.732 19.064 9.384 19.568 7.416 20L5.472 27.704C5.304 28.4 5.052 28.868 4.716 29.108C4.404 29.348 3.768 29.468 2.808 29.468C2.064 29.468 1.512 29.336 1.152 29.072C0.816 28.832 0.648 28.412 0.648 27.812C0.648 27.548 0.684 27.296 0.756 27.056L5.688 7.58C5.952 6.524 6.228 5.828 6.516 5.492C6.828 5.132 7.38 4.952 8.172 4.952C8.82 4.952 9.408 5.024 9.936 5.168C10.488 5.312 10.776 5.528 10.8 5.816C10.8 5.864 10.644 6.512 10.332 7.76C9.852 9.608 9.168 12.416 8.28 16.184C11.832 15.464 15.204 14.972 18.396 14.708L20.052 8.012C20.292 7.052 20.616 6.344 21.024 5.888C21.456 5.408 22.032 5.096 22.752 4.952C23.64 5.12 24.216 5.264 24.48 5.384C24.768 5.48 24.96 5.636 25.056 5.852C24.744 6.74 24.504 7.568 24.336 8.336C24.192 9.08 24.108 9.524 24.084 9.668C23.772 11.348 23.4 13.064 22.968 14.816C23.904 15.224 24.372 15.776 24.372 16.472C24.372 17.168 23.628 17.756 22.14 18.236C21.876 19.196 21.384 21.284 20.664 24.5C20.496 25.388 20.256 26.492 19.944 27.812C19.608 29.132 19.08 29.792 18.36 29.792C16.152 29.792 15.048 29.276 15.048 28.244C15.048 28.028 15.852 24.776 17.46 18.488ZM39.9603 27.128C40.0083 27.752 40.0923 28.316 40.2123 28.82C40.1643 28.964 39.9483 29.108 39.5643 29.252C39.2043 29.396 38.8923 29.468 38.6283 29.468C37.7643 29.468 37.1403 29.336 36.7563 29.072C36.3963 28.832 36.2163 28.46 36.2163 27.956C36.2163 27.476 36.2643 26.996 36.3603 26.516C35.8323 27.236 35.0523 27.836 34.0203 28.316C33.0123 28.772 32.1963 29 31.5723 29C29.9643 29 28.6203 28.532 27.5403 27.596C26.4843 26.66 25.9563 25.16 25.9563 23.096C25.9563 21.152 26.4123 19.328 27.3243 17.624C28.2603 15.896 29.5443 14.516 31.1763 13.484C32.8083 12.428 34.6203 11.9 36.6123 11.9C36.9963 11.9 37.5003 12.008 38.1243 12.224C38.7483 12.416 39.3723 12.764 39.9963 13.268C40.6443 13.748 41.1843 14.372 41.6163 15.14C41.8083 15.14 42.0363 15.236 42.3003 15.428C42.5643 15.62 42.6963 15.812 42.6963 16.004C42.6963 16.22 42.6603 16.436 42.5883 16.652L39.9603 27.128ZM38.3403 17.048C38.1963 16.52 37.9083 16.076 37.4763 15.716C37.0683 15.356 36.6963 15.176 36.3603 15.176C35.2563 15.176 34.2123 15.572 33.2283 16.364C32.2683 17.132 31.4883 18.092 30.8883 19.244C30.2883 20.396 29.9883 21.488 29.9883 22.52C29.9883 23.528 30.1083 24.356 30.3483 25.004C30.5883 25.652 31.0563 25.976 31.7523 25.976C32.3523 25.976 33.0363 25.796 33.8043 25.436C34.5963 25.076 35.2923 24.596 35.8923 23.996C36.5163 23.372 36.9243 22.724 37.1163 22.052L38.3403 17.048ZM31.3203 36.74C30.7683 36.74 30.2403 36.512 29.7363 36.056C29.2323 35.624 28.9803 35.132 28.9803 34.58C28.9803 33.764 29.3163 33.056 29.9883 32.456C30.6603 31.856 31.4043 31.556 32.2203 31.556C32.8203 31.556 33.3603 31.808 33.8403 32.312C34.3203 32.84 34.5603 33.404 34.5603 34.004C34.5603 34.772 34.2363 35.42 33.5883 35.948C32.9403 36.476 32.1843 36.74 31.3203 36.74ZM49.5706 25.04C49.5706 25.592 49.7146 26.036 50.0026 26.372C50.2906 26.684 50.6986 26.84 51.2266 26.84C51.9466 26.84 52.5346 26.636 52.9906 26.228C53.4706 25.796 53.9746 25.196 54.5026 24.428C54.8866 23.876 55.1986 23.48 55.4386 23.24C55.6786 23 55.9546 22.88 56.2666 22.88C56.8906 22.88 57.3346 22.964 57.5986 23.132C57.8626 23.276 57.9946 23.588 57.9946 24.068C57.9946 24.284 57.9706 24.548 57.9226 24.86C57.8746 25.148 57.8146 25.364 57.7426 25.508C57.1666 26.732 56.2186 27.788 54.8986 28.676C53.6026 29.564 52.1266 30.008 50.4706 30.008C48.8146 30.008 47.5666 29.612 46.7266 28.82C45.8866 28.004 45.4666 26.852 45.4666 25.364C45.4666 25.148 45.5746 24.584 45.7906 23.672C46.0066 22.76 46.2826 21.668 46.6186 20.396L47.6266 16.292L45.4306 16.472C45.1426 16.472 44.9266 16.364 44.7826 16.148C44.6386 15.932 44.5666 15.668 44.5666 15.356C44.5666 14.756 44.7826 14.156 45.2146 13.556C45.2626 13.484 45.5026 13.412 45.9346 13.34C46.3666 13.268 46.8946 13.196 47.5186 13.124L48.4906 13.016L49.7146 7.76C49.9546 7.136 50.3146 6.656 50.7946 6.32C51.2986 5.96 51.7666 5.78 52.1986 5.78C52.6786 5.78 53.0866 5.924 53.4226 6.212C53.7586 6.5 53.9386 6.836 53.9626 7.22L52.6666 12.62C53.6026 12.5 54.4666 12.404 55.2586 12.332C56.0746 12.236 56.7106 12.188 57.1666 12.188C58.0786 12.188 58.5346 12.716 58.5346 13.772C58.5346 14.18 58.3546 14.552 57.9946 14.888C57.6586 15.2 57.2866 15.392 56.8786 15.464L51.8386 15.968L49.5706 25.04ZM88.173 8.48C85.773 17.696 84.381 23.288 83.997 25.256C83.853 25.976 83.781 26.528 83.781 26.912C83.781 27.56 83.853 28.196 83.997 28.82C83.949 28.964 83.757 29.108 83.421 29.252C83.109 29.396 82.821 29.468 82.557 29.468C82.077 29.468 81.549 29.408 80.973 29.288C80.397 29.168 80.037 29.036 79.893 28.892C79.677 28.7 79.569 28.316 79.569 27.74C79.569 27.308 79.617 26.9 79.713 26.516C79.209 27.236 78.441 27.836 77.409 28.316C76.401 28.772 75.585 29 74.961 29C71.289 29 69.453 27.02 69.453 23.06C69.453 21.332 69.837 19.604 70.605 17.876C71.397 16.148 72.513 14.72 73.953 13.592C75.417 12.464 77.109 11.9 79.029 11.9C79.557 11.9 80.145 12.116 80.793 12.548C81.441 12.956 81.969 13.424 82.377 13.952C82.497 13.424 82.833 12.044 83.385 9.812L83.601 8.948L79.965 9.344C79.797 9.368 79.581 9.38 79.317 9.38C78.381 9.38 77.877 9.056 77.805 8.408L77.769 7.976C77.769 7.352 77.973 6.872 78.381 6.536C78.789 6.176 79.497 5.948 80.505 5.852C80.937 5.804 81.249 5.78 81.441 5.78L84.501 5.456L85.257 2.324C85.353 1.964 85.629 1.676 86.085 1.46C86.565 1.22 87.069 1.1 87.597 1.1C88.029 1.1 88.497 1.196 89.001 1.388C89.505 1.58 89.757 1.856 89.757 2.216L89.073 4.952L89.469 4.916H89.685C90.933 4.916 91.605 5.384 91.701 6.32V6.5C91.701 7.028 91.521 7.448 91.161 7.76C90.801 8.048 90.285 8.228 89.613 8.3L88.173 8.48ZM81.585 17.3C81.441 16.772 81.093 16.292 80.541 15.86C80.013 15.404 79.581 15.176 79.245 15.176C78.141 15.176 77.109 15.536 76.149 16.256C75.189 16.976 74.421 17.912 73.845 19.064C73.293 20.216 73.017 21.404 73.017 22.628C73.017 23.54 73.185 24.356 73.521 25.076C73.857 25.796 74.373 26.156 75.069 26.156C75.669 26.156 76.365 25.964 77.157 25.58C77.973 25.172 78.693 24.656 79.317 24.032C79.941 23.384 80.325 22.724 80.469 22.052L81.585 17.3ZM92.4694 7.616C92.4694 6.872 92.6974 6.212 93.1534 5.636C93.6334 5.06 94.2934 4.772 95.1334 4.772C96.0214 4.772 96.7894 5.048 97.4374 5.6C98.1094 6.152 98.4454 6.776 98.4454 7.472C98.4454 8.168 98.1094 8.768 97.4374 9.272C96.7654 9.776 95.9854 10.028 95.0974 10.028C94.2334 10.028 93.5734 9.812 93.1174 9.38C92.6854 8.924 92.4694 8.336 92.4694 7.616ZM96.2494 13.988C94.9774 19.172 94.0054 23.072 93.3334 25.688C93.2374 26.072 93.1894 26.492 93.1894 26.948L93.2254 27.956C93.2254 28.364 93.0934 28.652 92.8294 28.82C92.5894 28.988 92.0614 29.084 91.2454 29.108C90.4534 29.108 89.8534 29.024 89.4454 28.856C89.0374 28.688 88.8334 28.328 88.8334 27.776C88.8334 27.512 89.1334 26.108 89.7334 23.564C90.3574 21.02 91.1974 17.708 92.2534 13.628L91.4254 12.548C91.3534 12.476 91.3174 12.392 91.3174 12.296C91.3174 12.056 91.5814 11.864 92.1094 11.72C92.6374 11.552 93.3694 11.468 94.3054 11.468C95.1214 11.468 95.6374 11.708 95.8534 12.188C96.0934 12.644 96.2254 13.244 96.2494 13.988ZM105.479 4.016C105.527 4.112 105.551 4.208 105.551 4.304C105.551 4.592 105.479 4.796 105.335 4.916C105.191 5.036 104.951 5.096 104.615 5.096C104.303 5.096 103.991 5.012 103.679 4.844C103.391 4.676 102.959 4.376 102.383 3.944L101.159 3.08C100.439 2.6 99.9586 2.252 99.7186 2.036C99.4786 1.796 99.3586 1.568 99.3586 1.352C99.3586 1.112 99.7066 0.835999 100.403 0.524C101.123 0.187998 101.675 0.0199976 102.059 0.0199976C102.323 0.0199976 102.815 0.475998 103.535 1.388C104.279 2.3 104.927 3.176 105.479 4.016ZM110.879 3.044C111.359 3.044 111.779 3.164 112.139 3.404C112.523 3.62 112.991 4.088 113.543 4.808L115.379 7.184C115.619 7.496 115.739 7.796 115.739 8.084C115.739 8.468 115.547 8.804 115.163 9.092C114.803 9.356 114.371 9.488 113.867 9.488C113.387 9.488 112.931 9.236 112.499 8.732L110.519 6.356C109.079 7.604 108.011 8.48 107.315 8.984C106.643 9.488 106.151 9.74 105.839 9.74C105.359 9.74 104.927 9.632 104.543 9.416C104.183 9.2 104.003 8.912 104.003 8.552C104.003 8.288 104.039 8.048 104.111 7.832C104.207 7.616 104.423 7.376 104.759 7.112L105.551 6.464C107.351 4.976 108.587 3.98 109.259 3.476C109.619 3.188 110.159 3.044 110.879 3.044ZM104.831 29.756C102.479 29.756 100.763 29.288 99.6826 28.352C98.6026 27.416 98.0626 26.168 98.0626 24.608C98.0626 22.328 98.6266 20.216 99.7546 18.272C100.907 16.328 102.431 14.792 104.327 13.664C106.247 12.512 108.311 11.936 110.519 11.936C111.863 11.936 112.991 12.32 113.903 13.088C114.815 13.832 115.271 14.936 115.271 16.4C115.271 17.24 114.995 17.936 114.443 18.488C113.915 19.016 113.147 19.496 112.139 19.928C111.131 20.336 109.499 20.924 107.243 21.692C105.203 22.364 103.547 22.928 102.275 23.384C102.179 23.744 102.131 24.116 102.131 24.5C102.131 25.172 102.407 25.688 102.959 26.048C103.535 26.408 104.339 26.588 105.371 26.588C106.019 26.588 106.763 26.456 107.603 26.192C108.443 25.928 108.971 25.592 109.187 25.184C110.003 23.696 110.747 22.952 111.419 22.952C112.403 22.952 113.063 23.144 113.399 23.528C113.759 23.888 113.951 24.296 113.975 24.752C113.687 25.52 113.123 26.3 112.283 27.092C111.443 27.86 110.375 28.496 109.079 29C107.783 29.504 106.367 29.756 104.831 29.756ZM103.283 20.072C105.659 19.304 107.615 18.596 109.151 17.948C110.687 17.276 111.455 16.616 111.455 15.968C111.455 15.68 111.299 15.452 110.987 15.284C110.675 15.092 110.339 14.996 109.979 14.996C109.259 14.996 108.431 15.272 107.495 15.824C106.583 16.376 105.731 17.048 104.939 17.84C104.147 18.632 103.595 19.376 103.283 20.072ZM131.135 28.892C131.039 29.3 130.823 29.576 130.487 29.72C130.151 29.888 129.707 29.972 129.155 29.972C127.499 29.972 126.671 29.6 126.671 28.856L126.887 27.488C126.215 27.992 125.423 28.496 124.511 29C123.599 29.504 122.843 29.756 122.243 29.756C118.691 29.756 116.915 28.592 116.915 26.264C116.915 22.304 118.103 18.008 120.479 13.376C120.767 12.824 121.067 12.428 121.379 12.188C121.715 11.948 122.279 11.828 123.071 11.828C123.911 11.828 124.535 11.948 124.943 12.188C125.375 12.404 125.591 12.668 125.591 12.98C125.591 13.052 125.459 13.268 125.195 13.628C124.931 13.94 124.703 14.252 124.511 14.564C122.255 18.332 121.127 22.004 121.127 25.58C121.127 25.892 121.247 26.168 121.487 26.408C121.727 26.648 121.943 26.768 122.135 26.768C122.663 26.768 123.551 26.516 124.799 26.012C126.071 25.508 127.043 24.992 127.715 24.464L128.435 21.548C129.299 18.068 129.839 15.932 130.055 15.14C130.319 14.18 130.655 13.4 131.063 12.8C131.495 12.176 132.167 11.864 133.079 11.864C134.351 11.864 134.987 12.248 134.987 13.016C134.987 13.136 134.951 13.292 134.879 13.484C134.831 13.652 134.795 13.796 134.771 13.916L133.331 19.748C132.179 24.38 131.447 27.428 131.135 28.892ZM150.715 25.04C150.715 25.592 150.859 26.036 151.147 26.372C151.435 26.684 151.843 26.84 152.371 26.84C153.091 26.84 153.679 26.636 154.135 26.228C154.615 25.796 155.119 25.196 155.647 24.428C156.031 23.876 156.343 23.48 156.583 23.24C156.823 23 157.099 22.88 157.411 22.88C158.035 22.88 158.479 22.964 158.743 23.132C159.007 23.276 159.139 23.588 159.139 24.068C159.139 24.284 159.115 24.548 159.067 24.86C159.019 25.148 158.959 25.364 158.887 25.508C158.311 26.732 157.363 27.788 156.043 28.676C154.747 29.564 153.271 30.008 151.615 30.008C149.959 30.008 148.711 29.612 147.871 28.82C147.031 28.004 146.611 26.852 146.611 25.364C146.611 25.148 146.719 24.584 146.935 23.672C147.151 22.76 147.427 21.668 147.763 20.396L148.771 16.292L146.575 16.472C146.287 16.472 146.071 16.364 145.927 16.148C145.783 15.932 145.711 15.668 145.711 15.356C145.711 14.756 145.927 14.156 146.359 13.556C146.407 13.484 146.647 13.412 147.079 13.34C147.511 13.268 148.039 13.196 148.663 13.124L149.635 13.016L150.859 7.76C151.099 7.136 151.459 6.656 151.939 6.32C152.443 5.96 152.911 5.78 153.343 5.78C153.823 5.78 154.231 5.924 154.567 6.212C154.903 6.5 155.083 6.836 155.107 7.22L153.811 12.62C154.747 12.5 155.611 12.404 156.403 12.332C157.219 12.236 157.855 12.188 158.311 12.188C159.223 12.188 159.679 12.716 159.679 13.772C159.679 14.18 159.499 14.552 159.139 14.888C158.803 15.2 158.431 15.392 158.023 15.464L152.983 15.968L150.715 25.04ZM166.646 17.12C167.198 16.04 167.894 15.116 168.734 14.348C169.574 13.556 170.426 12.968 171.29 12.584C172.178 12.176 172.934 11.972 173.558 11.972C175.046 11.972 176.21 12.344 177.05 13.088C177.914 13.832 178.346 14.732 178.346 15.788L175.646 26.84V27.092C175.646 28.34 175.454 29.204 175.07 29.684C174.71 30.164 174.014 30.404 172.982 30.404C172.43 30.404 171.962 30.224 171.578 29.864C171.218 29.504 171.038 29.096 171.038 28.64C171.038 28.496 171.05 28.388 171.074 28.316C171.698 25.676 172.214 23.528 172.622 21.872C172.862 20.84 173.15 19.604 173.486 18.164C173.846 16.724 174.026 15.956 174.026 15.86C174.026 15.524 173.834 15.356 173.45 15.356C172.898 15.356 172.13 15.608 171.146 16.112C170.162 16.592 169.094 17.516 167.942 18.884C166.814 20.252 165.854 22.124 165.062 24.5C164.726 25.532 164.474 26.432 164.306 27.2L164.27 27.344C164.174 27.776 164.066 28.112 163.946 28.352C163.826 28.568 163.598 28.748 163.262 28.892C162.95 29.036 162.458 29.108 161.786 29.108C160.25 29.108 159.482 28.568 159.482 27.488C159.554 27.152 159.71 26.672 159.95 26.048C160.166 25.568 160.346 25.052 160.49 24.5L166.07 4.016C166.166 3.68 166.43 3.404 166.862 3.188C167.294 2.948 167.726 2.828 168.158 2.828C168.878 2.828 169.382 3.02 169.67 3.404C169.982 3.788 170.162 4.316 170.21 4.988L166.646 17.12ZM203.561 14.132C203.561 15.836 202.997 17.228 201.869 18.308C200.765 19.364 199.349 19.892 197.621 19.892C197.285 19.892 196.925 19.868 196.541 19.82C195.533 23.852 194.813 26.876 194.381 28.892C194.285 29.3 194.069 29.576 193.733 29.72C193.397 29.888 192.953 29.972 192.401 29.972C190.745 29.972 189.917 29.6 189.917 28.856L190.133 27.488C189.461 27.992 188.669 28.496 187.757 29C186.845 29.504 186.089 29.756 185.489 29.756C181.937 29.756 180.161 28.592 180.161 26.264C180.161 22.304 181.349 18.008 183.725 13.376C184.013 12.824 184.313 12.428 184.625 12.188C184.961 11.948 185.525 11.828 186.317 11.828C187.157 11.828 187.781 11.948 188.189 12.188C188.621 12.404 188.837 12.668 188.837 12.98C188.837 13.052 188.705 13.268 188.441 13.628C188.177 13.94 187.949 14.252 187.757 14.564C185.501 18.332 184.373 22.004 184.373 25.58C184.373 25.892 184.493 26.168 184.733 26.408C184.973 26.648 185.189 26.768 185.381 26.768C185.909 26.768 186.797 26.516 188.045 26.012C189.317 25.508 190.289 24.992 190.961 24.464L191.681 21.548C192.545 18.068 193.085 15.932 193.301 15.14C193.565 14.18 193.901 13.4 194.309 12.8C194.741 12.176 195.413 11.864 196.325 11.864C197.597 11.864 198.233 12.248 198.233 13.016C198.233 13.136 198.197 13.292 198.125 13.484C198.077 13.652 198.041 13.796 198.017 13.916L196.973 18.128C198.005 18.032 198.749 17.804 199.205 17.444C199.685 17.06 199.973 16.364 200.069 15.356V15.212C200.069 15.044 200.045 14.828 199.997 14.564C199.949 14.3 199.925 14.096 199.925 13.952C199.973 13.568 200.129 13.196 200.393 12.836C200.681 12.476 201.041 12.296 201.473 12.296H202.229C203.117 12.296 203.561 12.908 203.561 14.132ZM209.394 29.756C207.282 29.756 205.638 29.036 204.462 27.596C203.286 26.156 202.698 24.32 202.698 22.088C202.698 20.216 203.142 18.452 204.03 16.796C204.942 15.14 206.178 13.808 207.738 12.8C209.298 11.792 211.014 11.288 212.886 11.288C214.734 11.288 216.246 11.9 217.422 13.124C218.598 14.324 219.198 16.088 219.222 18.416C220.014 18.2 220.59 17.864 220.95 17.408C221.31 16.928 221.49 16.232 221.49 15.32C221.49 15.104 221.442 14.84 221.346 14.528C221.274 14.192 221.238 13.952 221.238 13.808C221.238 13.4 221.346 13.028 221.562 12.692C221.778 12.332 222.102 12.152 222.534 12.152H223.398C224.022 12.152 224.418 12.332 224.586 12.692C224.754 13.028 224.838 13.46 224.838 13.988C224.838 15.068 224.598 16.076 224.118 17.012C223.662 17.948 222.99 18.716 222.102 19.316C221.238 19.916 220.218 20.24 219.042 20.288C218.73 21.824 218.094 23.324 217.134 24.788C216.174 26.252 215.01 27.452 213.642 28.388C212.298 29.3 210.882 29.756 209.394 29.756ZM209.934 26.876C210.702 26.876 211.47 26.396 212.238 25.436C213.03 24.476 213.678 23.264 214.182 21.8C214.686 20.336 214.938 18.908 214.938 17.516C214.938 15.38 214.05 14.312 212.274 14.312C211.29 14.312 210.39 14.78 209.574 15.716C208.758 16.652 208.11 17.816 207.63 19.208C207.15 20.576 206.91 21.86 206.91 23.06C206.91 23.756 207.066 24.404 207.378 25.004C207.69 25.58 208.074 26.036 208.53 26.372C209.01 26.708 209.478 26.876 209.934 26.876ZM207.09 36.74C206.538 36.74 206.01 36.512 205.506 36.056C205.002 35.624 204.75 35.132 204.75 34.58C204.75 33.764 205.086 33.056 205.758 32.456C206.43 31.856 207.174 31.556 207.99 31.556C208.59 31.556 209.13 31.808 209.61 32.312C210.09 32.84 210.33 33.404 210.33 34.004C210.33 34.772 210.006 35.42 209.358 35.948C208.71 36.476 207.954 36.74 207.09 36.74ZM225.914 12.548C225.842 12.476 225.806 12.392 225.806 12.296C225.806 12.056 226.07 11.864 226.598 11.72C227.126 11.552 227.858 11.468 228.794 11.468C229.658 11.468 230.294 11.696 230.702 12.152C231.11 12.584 231.35 13.112 231.422 13.736L230.774 16.076C231.278 15.38 231.986 14.72 232.898 14.096C233.81 13.448 234.734 12.932 235.67 12.548C236.606 12.164 237.374 11.972 237.974 11.972C239.246 11.972 240.17 12.212 240.746 12.692C241.322 13.148 241.61 13.88 241.61 14.888C240.194 18.584 239.258 22.568 238.802 26.84L239.306 28.604C239.018 29.156 238.61 29.588 238.082 29.9C237.578 30.236 236.834 30.404 235.85 30.404C235.274 30.404 234.854 30.212 234.59 29.828C234.326 29.444 234.194 28.964 234.194 28.388C234.194 26.78 234.422 25.016 234.878 23.096C235.358 21.152 235.91 19.172 236.534 17.156C236.774 16.388 236.894 15.992 236.894 15.968C236.894 15.632 236.702 15.464 236.318 15.464C235.79 15.464 234.986 15.836 233.906 16.58C232.85 17.324 231.758 18.584 230.63 20.36C229.502 22.112 228.59 24.416 227.894 27.272C227.846 27.416 227.786 27.68 227.714 28.064C227.642 28.448 227.45 28.724 227.138 28.892C226.826 29.036 226.322 29.108 225.626 29.108C224.834 29.108 224.246 29.024 223.862 28.856C223.502 28.688 223.322 28.328 223.322 27.776C223.394 27.44 223.502 27.032 223.646 26.552C225.038 20.96 226.106 16.652 226.85 13.628L225.914 12.548ZM252.556 27.812C250.756 29.012 249.04 29.612 247.408 29.612C246.784 29.612 246.076 29.408 245.284 29C244.516 28.592 243.856 28.04 243.304 27.344C242.752 26.648 242.476 25.88 242.476 25.04C242.476 23.696 242.92 21.98 243.808 19.892C244.696 17.804 245.944 15.98 247.552 14.42C249.184 12.86 251.08 12.08 253.24 12.08C255.064 12.08 256.588 12.38 257.812 12.98C259.036 13.58 259.648 14.444 259.648 15.572C259.648 15.644 259.6 15.896 259.504 16.328C258.28 21.632 257.188 26.048 256.228 29.576C255.676 31.64 254.908 33.224 253.924 34.328C252.964 35.456 251.872 36.212 250.648 36.596C249.448 36.98 248.032 37.172 246.4 37.172C245.224 37.172 244.156 36.86 243.196 36.236C242.26 35.612 241.792 34.724 241.792 33.572C241.792 32.756 242.308 32.348 243.34 32.348C243.58 32.348 243.856 32.528 244.168 32.888C244.552 33.296 244.948 33.608 245.356 33.824C245.788 34.064 246.412 34.184 247.228 34.184C248.548 34.184 249.688 33.632 250.648 32.528C251.608 31.424 252.244 29.852 252.556 27.812ZM253.312 24.428C253.504 23.372 253.828 22.124 254.284 20.684C254.764 19.22 255.4 17.756 256.192 16.292C256.072 15.812 255.688 15.5 255.04 15.356C254.416 15.188 253.852 15.104 253.348 15.104C252.46 15.104 251.5 15.704 250.468 16.904C249.436 18.104 248.548 19.508 247.804 21.116C247.084 22.7 246.724 23.984 246.724 24.968C246.724 25.448 246.856 25.796 247.12 26.012C247.384 26.204 247.72 26.3 248.128 26.3C248.68 26.3 249.556 26.096 250.756 25.688C251.98 25.256 252.832 24.836 253.312 24.428ZM275.295 20.252C276.615 17.276 277.947 15.152 279.291 13.88C280.635 12.608 281.835 11.972 282.891 11.972C284.379 11.972 285.555 12.344 286.419 13.088C287.307 13.832 287.763 14.732 287.787 15.788L284.799 27.704C284.607 28.448 284.403 28.988 284.187 29.324C283.971 29.684 283.731 29.9 283.467 29.972C283.203 30.068 282.831 30.116 282.351 30.116C281.775 30.116 281.295 29.972 280.911 29.684C280.551 29.42 280.371 29.072 280.371 28.64C280.371 28.496 280.383 28.388 280.407 28.316C280.671 27.14 281.319 24.392 282.351 20.072C283.023 17.456 283.359 16.052 283.359 15.86C283.359 15.524 283.191 15.356 282.855 15.356C282.591 15.356 281.787 16.064 280.443 17.48C279.099 18.896 277.779 20.48 276.483 22.232C275.211 23.984 274.395 25.472 274.035 26.696C274.011 26.792 273.975 26.936 273.927 27.128C273.879 27.296 273.843 27.428 273.819 27.524C273.723 27.908 273.615 28.208 273.495 28.424C273.375 28.616 273.147 28.784 272.811 28.928C272.499 29.048 272.031 29.108 271.407 29.108C270.711 29.108 270.195 28.976 269.859 28.712C269.547 28.448 269.379 28.028 269.355 27.452C269.691 26.132 269.919 25.148 270.039 24.5L275.655 2.18C275.751 1.844 276.003 1.568 276.411 1.352C276.843 1.112 277.275 0.991998 277.707 0.991998C278.427 0.991998 278.943 1.184 279.255 1.568C279.567 1.952 279.759 2.48 279.831 3.152L275.295 20.252ZM303.21 27.128C303.258 27.752 303.342 28.316 303.462 28.82C303.414 28.964 303.198 29.108 302.814 29.252C302.454 29.396 302.142 29.468 301.878 29.468C301.014 29.468 300.39 29.336 300.006 29.072C299.646 28.832 299.466 28.46 299.466 27.956C299.466 27.476 299.514 26.996 299.61 26.516C299.082 27.236 298.302 27.836 297.27 28.316C296.262 28.772 295.446 29 294.822 29C293.214 29 291.87 28.532 290.79 27.596C289.734 26.66 289.206 25.16 289.206 23.096C289.206 21.152 289.662 19.328 290.574 17.624C291.51 15.896 292.794 14.516 294.426 13.484C296.058 12.428 297.87 11.9 299.862 11.9C300.246 11.9 300.75 12.008 301.374 12.224C301.998 12.416 302.622 12.764 303.246 13.268C303.894 13.748 304.434 14.372 304.866 15.14C305.058 15.14 305.286 15.236 305.55 15.428C305.814 15.62 305.946 15.812 305.946 16.004C305.946 16.22 305.91 16.436 305.838 16.652L303.21 27.128ZM301.59 17.048C301.446 16.52 301.158 16.076 300.726 15.716C300.318 15.356 299.946 15.176 299.61 15.176C298.506 15.176 297.462 15.572 296.478 16.364C295.518 17.132 294.738 18.092 294.138 19.244C293.538 20.396 293.238 21.488 293.238 22.52C293.238 23.528 293.358 24.356 293.598 25.004C293.838 25.652 294.306 25.976 295.002 25.976C295.602 25.976 296.286 25.796 297.054 25.436C297.846 25.076 298.542 24.596 299.142 23.996C299.766 23.372 300.174 22.724 300.366 22.052L301.59 17.048ZM294.57 36.74C294.018 36.74 293.49 36.512 292.986 36.056C292.482 35.624 292.23 35.132 292.23 34.58C292.23 33.764 292.566 33.056 293.238 32.456C293.91 31.856 294.654 31.556 295.47 31.556C296.07 31.556 296.61 31.808 297.09 32.312C297.57 32.84 297.81 33.404 297.81 34.004C297.81 34.772 297.486 35.42 296.838 35.948C296.19 36.476 295.434 36.74 294.57 36.74ZM309.797 12.548C309.725 12.476 309.689 12.392 309.689 12.296C309.689 12.056 309.953 11.864 310.481 11.72C311.009 11.552 311.741 11.468 312.677 11.468C313.541 11.468 314.177 11.696 314.585 12.152C314.993 12.584 315.233 13.112 315.305 13.736L314.657 16.076C315.161 15.38 315.869 14.72 316.781 14.096C317.693 13.448 318.617 12.932 319.553 12.548C320.489 12.164 321.257 11.972 321.857 11.972C323.129 11.972 324.053 12.212 324.629 12.692C325.205 13.148 325.493 13.88 325.493 14.888C324.077 18.584 323.141 22.568 322.685 26.84L323.189 28.604C322.901 29.156 322.493 29.588 321.965 29.9C321.461 30.236 320.717 30.404 319.733 30.404C319.157 30.404 318.737 30.212 318.473 29.828C318.209 29.444 318.077 28.964 318.077 28.388C318.077 26.78 318.305 25.016 318.761 23.096C319.241 21.152 319.793 19.172 320.417 17.156C320.657 16.388 320.777 15.992 320.777 15.968C320.777 15.632 320.585 15.464 320.201 15.464C319.673 15.464 318.869 15.836 317.789 16.58C316.733 17.324 315.641 18.584 314.513 20.36C313.385 22.112 312.473 24.416 311.777 27.272C311.729 27.416 311.669 27.68 311.597 28.064C311.525 28.448 311.333 28.724 311.021 28.892C310.709 29.036 310.205 29.108 309.509 29.108C308.717 29.108 308.129 29.024 307.745 28.856C307.385 28.688 307.205 28.328 307.205 27.776C307.277 27.44 307.385 27.032 307.529 26.552C308.921 20.96 309.989 16.652 310.733 13.628L309.797 12.548ZM336.439 27.812C334.639 29.012 332.923 29.612 331.291 29.612C330.667 29.612 329.959 29.408 329.167 29C328.399 28.592 327.739 28.04 327.187 27.344C326.635 26.648 326.359 25.88 326.359 25.04C326.359 23.696 326.803 21.98 327.691 19.892C328.579 17.804 329.827 15.98 331.435 14.42C333.067 12.86 334.963 12.08 337.123 12.08C338.947 12.08 340.471 12.38 341.695 12.98C342.919 13.58 343.531 14.444 343.531 15.572C343.531 15.644 343.483 15.896 343.387 16.328C342.163 21.632 341.071 26.048 340.111 29.576C339.559 31.64 338.791 33.224 337.807 34.328C336.847 35.456 335.755 36.212 334.531 36.596C333.331 36.98 331.915 37.172 330.283 37.172C329.107 37.172 328.039 36.86 327.079 36.236C326.143 35.612 325.675 34.724 325.675 33.572C325.675 32.756 326.191 32.348 327.223 32.348C327.463 32.348 327.739 32.528 328.051 32.888C328.435 33.296 328.831 33.608 329.239 33.824C329.671 34.064 330.295 34.184 331.111 34.184C332.431 34.184 333.571 33.632 334.531 32.528C335.491 31.424 336.127 29.852 336.439 27.812ZM337.195 24.428C337.387 23.372 337.711 22.124 338.167 20.684C338.647 19.22 339.283 17.756 340.075 16.292C339.955 15.812 339.571 15.5 338.923 15.356C338.299 15.188 337.735 15.104 337.231 15.104C336.343 15.104 335.383 15.704 334.351 16.904C333.319 18.104 332.431 19.508 331.687 21.116C330.967 22.7 330.607 23.984 330.607 24.968C330.607 25.448 330.739 25.796 331.003 26.012C331.267 26.204 331.603 26.3 332.011 26.3C332.563 26.3 333.439 26.096 334.639 25.688C335.863 25.256 336.715 24.836 337.195 24.428Z" fill="#68A47F"/>
</svg>
