<svg width="749" height="43" viewBox="0 0 749 43" fill="none" xmlns="http://www.w3.org/2000/svg">
<path d="M8.064 32.336C9.312 32.336 10.44 32.072 11.448 31.544C12.456 31.016 13.248 30.26 13.824 29.276C14.424 28.268 14.724 27.104 14.724 25.784C14.724 23.768 13.488 22.76 11.016 22.76C9.864 22.76 8.928 22.988 8.208 23.444C7.488 23.876 6.768 24.452 6.048 25.172C5.616 25.652 5.304 25.892 5.112 25.892C4.416 25.892 3.804 25.724 3.276 25.388C2.772 25.052 2.52 24.548 2.52 23.876C2.52 23.684 2.568 23.432 2.664 23.12C4.272 18.32 5.076 15.536 5.076 14.768C5.076 14 5.136 13.412 5.256 13.004C5.376 12.572 5.616 12.248 5.976 12.032C6.336 11.816 6.888 11.708 7.632 11.708C7.824 11.708 8.004 11.72 8.172 11.744C8.364 11.768 8.556 11.78 8.748 11.78L17.28 11.06L18.936 10.916C19.488 10.916 19.944 11.072 20.304 11.384C20.688 11.696 20.88 12.104 20.88 12.608C20.88 13.184 20.736 13.664 20.448 14.048C20.16 14.432 19.464 14.684 18.36 14.804L9.108 15.74C9.132 15.668 8.964 16.244 8.604 17.468C8.076 19.172 7.764 20.168 7.668 20.456C9.228 19.52 10.92 19.052 12.744 19.052C13.896 19.052 14.964 19.292 15.948 19.772C16.932 20.252 17.724 20.972 18.324 21.932C18.924 22.892 19.224 24.056 19.224 25.424C19.224 27.632 18.732 29.528 17.748 31.112C16.788 32.696 15.444 33.908 13.716 34.748C11.988 35.564 10.008 35.972 7.776 35.972C6.744 35.972 5.688 35.78 4.608 35.396C3.552 35.012 2.676 34.484 1.98 33.812C1.284 33.14 0.936 32.408 0.936 31.616C0.936 31.16 1.104 30.788 1.44 30.5C1.8 30.212 2.256 30.068 2.808 30.068C3.024 30.068 3.288 30.152 3.6 30.32C3.936 30.464 4.392 30.704 4.968 31.04C5.64 31.448 6.216 31.772 6.696 32.012C7.2 32.228 7.656 32.336 8.064 32.336ZM46.4434 30.428C47.3794 30.836 47.8474 31.388 47.8474 32.084C47.8474 32.516 47.6314 32.936 47.1994 33.344C46.7674 33.752 46.2754 34.04 45.7234 34.208C44.4034 34.352 43.4674 34.436 42.9154 34.46C39.6994 34.724 37.4314 34.976 36.1114 35.216C35.8954 35.36 35.4394 35.432 34.7434 35.432C34.0714 35.432 33.4714 35.12 32.9434 34.496C32.4394 33.872 32.1874 33.224 32.1874 32.552C32.1874 32.288 32.2234 32.036 32.2954 31.796L36.9034 13.58C37.1674 12.524 37.4434 11.828 37.7314 11.492C38.0434 11.132 38.5954 10.952 39.3874 10.952C40.0354 10.952 40.5874 11.024 41.0434 11.168C41.5234 11.312 41.7754 11.528 41.7994 11.816C41.7994 12.488 40.2514 19.016 37.1554 31.4C39.2674 31.04 41.9554 30.752 45.2194 30.536L46.4434 30.428ZM58.4643 9.512C58.0083 9.512 57.6723 9.428 57.4563 9.26C57.2403 9.092 57.1323 8.804 57.1323 8.396C57.1323 8.204 57.1683 8.06 57.2403 7.964C57.5763 7.46 58.2123 6.752 59.1483 5.84C60.1083 4.928 61.0443 4.124 61.9563 3.428C62.8923 2.708 63.4923 2.348 63.7563 2.348C64.2603 2.348 64.8363 2.576 65.4843 3.032C66.1323 3.488 66.4563 3.908 66.4563 4.292C66.4563 4.604 66.2883 4.916 65.9523 5.228C65.6163 5.54 64.9323 6.056 63.9003 6.776C62.4363 7.808 61.3203 8.528 60.5523 8.936C59.7843 9.32 59.0883 9.512 58.4643 9.512ZM66.5283 11.24C67.4403 11.24 68.1963 11.372 68.7963 11.636C69.3963 11.9 69.7083 12.2 69.7323 12.536C69.5403 12.824 68.8923 13.604 67.7883 14.876L66.2763 16.568C63.8523 19.448 61.9443 21.644 60.5523 23.156C59.1843 24.644 58.1283 25.652 57.3843 26.18C57.2403 26.276 57.0243 26.384 56.7363 26.504C56.6163 27.392 56.2203 29.204 55.5483 31.94L55.1523 33.524C54.9843 34.22 54.7323 34.688 54.3963 34.928C54.0843 35.168 53.4483 35.288 52.4883 35.288C51.7683 35.288 51.2523 35.168 50.9403 34.928C50.6283 34.688 50.4723 34.256 50.4723 33.632C50.4723 33.368 50.5083 33.116 50.5803 32.876L52.0203 27.116C52.0683 26.996 52.1163 26.792 52.1643 26.504C51.7563 26.36 51.4923 26.168 51.3723 25.928C51.2763 25.664 51.2043 25.232 51.1563 24.632C51.0123 22.808 50.8923 21.38 50.7963 20.348C50.7723 20.012 50.6883 19.016 50.5443 17.36C50.4003 15.68 50.3283 14.084 50.3283 12.572C50.3283 12.212 50.5803 11.912 51.0843 11.672C51.6123 11.408 52.2723 11.276 53.0643 11.276C53.7843 11.276 54.3123 11.408 54.6483 11.672C54.9843 11.912 55.1523 12.296 55.1523 12.824L55.1883 22.004V24.272C57.1323 21.536 59.3283 18.68 61.7763 15.704C64.2483 12.728 65.8323 11.24 66.5283 11.24ZM79.3966 14.372C80.5966 13.58 82.3366 12.932 84.6166 12.428C86.8966 11.9 88.8766 11.636 90.5566 11.636C92.2846 11.636 93.7366 12.056 94.9126 12.896C96.1126 13.736 97.0006 14.84 97.5766 16.208C98.1766 17.576 98.4766 19.052 98.4766 20.636C98.4766 23.3 97.9366 25.772 96.8566 28.052C95.7766 30.332 94.2166 32.156 92.1766 33.524C90.1366 34.892 87.7246 35.576 84.9406 35.576C84.2446 35.576 83.3926 35.492 82.3846 35.324C82.0006 35.252 81.5686 34.892 81.0886 34.244C80.6326 33.596 80.2366 32.876 79.9006 32.084C79.5646 31.268 79.3966 30.632 79.3966 30.176C79.3966 29.912 79.4326 29.66 79.5046 29.42L82.8166 16.604C81.7366 16.916 80.6686 17.444 79.6126 18.188C79.3246 17.9 79.1086 17.54 78.9646 17.108C78.8206 16.676 78.7486 16.232 78.7486 15.776C78.7486 15.248 78.9646 14.78 79.3966 14.372ZM83.7886 31.58C84.3646 31.724 84.9886 31.796 85.6606 31.796C87.4606 31.796 88.9846 31.28 90.2326 30.248C91.5046 29.192 92.4526 27.836 93.0766 26.18C93.7246 24.524 94.0486 22.784 94.0486 20.96C94.0486 19.28 93.6766 17.96 92.9326 17C92.1886 16.016 91.0366 15.524 89.4766 15.524C88.8046 15.524 88.1926 15.572 87.6406 15.668C87.2086 17.612 86.6206 20.084 85.8766 23.084C85.1326 26.06 84.6286 28.112 84.3646 29.24L83.7886 31.58ZM108.04 35.756C105.184 35.756 103.048 34.832 101.632 32.984C100.216 31.136 99.5082 28.628 99.5082 25.46C99.5082 22.844 100.072 20.42 101.2 18.188C102.328 15.956 103.9 14.18 105.916 12.86C107.932 11.54 110.2 10.88 112.72 10.88C115.168 10.88 117.124 11.72 118.588 13.4C120.076 15.056 120.82 17.54 120.82 20.852C120.82 23.204 120.268 25.544 119.164 27.872C118.084 30.176 116.572 32.072 114.628 33.56C112.684 35.024 110.488 35.756 108.04 35.756ZM108.544 32.516C109.72 32.516 110.872 31.856 112 30.536C113.128 29.216 114.04 27.524 114.736 25.46C115.456 23.396 115.816 21.296 115.816 19.16C115.816 17.528 115.54 16.352 114.988 15.632C114.46 14.888 113.512 14.516 112.144 14.516C110.632 14.516 109.288 15.176 108.112 16.496C106.936 17.816 106.024 19.46 105.376 21.428C104.728 23.396 104.404 25.304 104.404 27.152C104.404 28.232 104.596 29.18 104.98 29.996C105.388 30.812 105.904 31.436 106.528 31.868C107.176 32.3 107.848 32.516 108.544 32.516ZM140.376 17.792C139.632 20.096 139.068 22.688 138.684 25.568C138.324 28.424 138.12 31.136 138.072 33.704C138.048 34.376 137.844 34.832 137.46 35.072C137.076 35.336 136.38 35.468 135.372 35.468C134.628 35.468 134.076 35.336 133.716 35.072C133.356 34.832 133.176 34.412 133.176 33.812C133.176 32.324 133.416 29.72 133.896 26C134.376 22.256 135.144 18.812 136.2 15.668C137.28 12.524 138.648 10.952 140.304 10.952C140.952 10.952 141.528 11.024 142.032 11.168C142.536 11.312 142.812 11.528 142.86 11.816C142.836 11.816 144.54 17.072 147.972 27.584L151.248 11.996C151.248 11.228 151.776 10.844 152.832 10.844C153.432 10.844 154.02 11.156 154.596 11.78C155.196 12.404 155.616 12.932 155.856 13.364C155.448 15.02 154.944 17.288 154.344 20.168C153.744 23.048 153.348 24.92 153.156 25.784C152.388 29.528 151.824 32.204 151.464 33.812C151.128 35.132 150.612 35.792 149.916 35.792C148.308 35.792 147.192 35.432 146.568 34.712L140.376 17.792ZM166.624 9.692C166.144 9.692 165.712 9.584 165.328 9.368C164.968 9.152 164.788 8.864 164.788 8.504C164.788 8.24 164.824 8 164.896 7.784C164.992 7.568 165.208 7.328 165.544 7.064L166.336 6.416C168.136 4.928 169.372 3.932 170.044 3.428C170.404 3.14 170.944 2.996 171.664 2.996C172.144 2.996 172.564 3.116 172.924 3.356C173.308 3.572 173.776 4.04 174.328 4.76L176.164 7.136C176.404 7.448 176.524 7.748 176.524 8.036C176.524 8.42 176.332 8.756 175.948 9.044C175.588 9.308 175.156 9.44 174.652 9.44C174.172 9.44 173.716 9.188 173.284 8.684L171.304 6.308C169.864 7.556 168.796 8.432 168.1 8.936C167.428 9.44 166.936 9.692 166.624 9.692ZM177.316 10.664C178.18 11.12 178.612 11.696 178.612 12.392C178.612 12.824 178.372 13.232 177.892 13.616C177.436 13.976 176.92 14.228 176.344 14.372L174.76 14.48C174.04 14.528 173.068 14.6 171.844 14.696C170.62 14.768 169.18 14.876 167.524 15.02L165.904 21.464C167.416 21.224 168.664 21.032 169.648 20.888C170.656 20.744 171.772 20.624 172.996 20.528C173.932 20.936 174.4 21.488 174.4 22.184C174.4 22.616 174.184 23.036 173.752 23.444C173.32 23.852 172.828 24.14 172.276 24.308L170.224 24.524C168.04 24.764 166.288 25.004 164.968 25.244C164.68 26.564 164.272 28.232 163.744 30.248L163.456 31.364C166.648 30.764 169.732 30.344 172.708 30.104C173.644 30.512 174.112 31.064 174.112 31.76C174.112 32.192 173.896 32.612 173.464 33.02C173.032 33.428 172.54 33.716 171.988 33.884C167.428 34.412 164.212 34.856 162.34 35.216C162.124 35.36 161.656 35.432 160.936 35.432C160.264 35.432 159.664 35.12 159.136 34.496C158.632 33.872 158.38 33.224 158.38 32.552C158.38 32.288 158.416 32.036 158.488 31.796L162.592 15.56H162.484C162.46 15.296 162.292 14.972 161.98 14.588C161.956 14.54 161.86 14.396 161.692 14.156C161.524 13.892 161.44 13.64 161.44 13.4C161.488 12.704 161.944 12.152 162.808 11.744C164.608 11.504 167.128 11.276 170.368 11.06C173.608 10.82 175.924 10.688 177.316 10.664ZM199.049 10.952C199.937 11.12 200.513 11.264 200.777 11.384C201.065 11.48 201.257 11.636 201.353 11.852C200.849 13.796 200.189 16.556 199.373 20.132C198.557 23.684 198.005 26.072 197.717 27.296C197.189 29.744 196.697 31.916 196.241 33.812C195.905 35.132 195.377 35.792 194.657 35.792C192.761 35.792 191.681 35.408 191.417 34.64L191.345 34.712L185.477 19.016L183.245 28.088C182.813 29.744 182.345 31.616 181.841 33.704C181.673 34.4 181.409 34.868 181.049 35.108C180.713 35.348 180.065 35.468 179.105 35.468C178.361 35.468 177.809 35.336 177.449 35.072C177.113 34.832 176.945 34.412 176.945 33.812C176.945 33.548 176.981 33.296 177.053 33.056L181.985 13.58C182.249 12.524 182.525 11.828 182.813 11.492C183.125 11.132 183.677 10.952 184.469 10.952C185.117 10.952 185.693 11.024 186.197 11.168C186.701 11.312 186.965 11.528 186.989 11.816V11.924L192.785 27.98C194.345 20.444 195.341 16.016 195.773 14.696C196.109 13.688 196.565 12.848 197.141 12.176C197.717 11.504 198.353 11.096 199.049 10.952ZM231.417 30.032C231.057 31.112 230.385 32.132 229.401 33.092C228.417 34.028 227.145 34.796 225.585 35.396C224.049 35.996 222.309 36.296 220.365 36.296C217.437 36.296 215.289 35.588 213.921 34.172C212.553 32.732 211.869 30.896 211.869 28.664C211.869 25.472 212.529 22.556 213.849 19.916C215.193 17.252 217.017 15.164 219.321 13.652C221.625 12.116 224.157 11.348 226.917 11.348C228.021 11.348 229.029 11.6 229.941 12.104C230.853 12.608 231.573 13.34 232.101 14.3C232.629 15.236 232.893 16.34 232.893 17.612C232.893 18.332 232.617 18.944 232.065 19.448C231.537 19.952 230.817 20.204 229.905 20.204C229.185 20.204 228.693 20.012 228.429 19.628C228.189 19.244 228.069 18.752 228.069 18.152L228.105 17C228.105 16.568 227.865 16.148 227.385 15.74C226.905 15.332 226.461 15.128 226.053 15.128C224.733 15.128 223.317 15.764 221.805 17.036C220.293 18.308 219.021 20 217.989 22.112C216.981 24.224 216.477 26.492 216.477 28.916C216.477 30.02 216.909 30.92 217.773 31.616C218.637 32.312 219.729 32.66 221.049 32.66C221.793 32.66 222.633 32.468 223.569 32.084C224.529 31.7 225.141 31.22 225.405 30.644C225.429 30.572 225.549 30.272 225.765 29.744C225.981 29.192 226.305 28.688 226.737 28.232C227.193 27.752 227.685 27.512 228.213 27.512C229.437 27.512 230.265 27.776 230.697 28.304C231.153 28.832 231.393 29.408 231.417 30.032ZM239.446 11.996C239.542 11.588 239.806 11.312 240.238 11.168C240.694 11.024 241.246 10.952 241.894 10.952C242.662 10.952 243.178 11.036 243.442 11.204C243.73 11.348 243.922 11.564 244.018 11.852C243.85 12.428 243.154 15.548 241.93 21.212C246.01 20.564 249.346 20.084 251.938 19.772L253.63 11.996C253.726 11.588 253.99 11.312 254.422 11.168C254.878 11.024 255.43 10.952 256.078 10.952C256.846 10.952 257.362 11.036 257.626 11.204C257.914 11.348 258.106 11.564 258.202 11.852C258.058 12.452 257.326 15.836 256.006 22.004C254.686 28.22 253.882 31.94 253.594 33.164C253.258 34.484 252.742 35.144 252.046 35.144C249.814 35.144 248.698 34.628 248.698 33.596L249.13 31.832C249.298 31.04 249.538 29.984 249.85 28.664C250.186 27.344 250.594 25.652 251.074 23.588C249.106 23.804 246.334 24.212 242.758 24.812C241.942 24.956 241.39 25.052 241.102 25.1C240.79 26.54 240.622 27.332 240.598 27.476C240.046 30.284 239.65 32.18 239.41 33.164C239.29 33.716 239.11 34.184 238.87 34.568C238.63 34.952 238.294 35.144 237.862 35.144C235.63 35.144 234.514 34.628 234.514 33.596C234.514 33.596 234.682 32.852 235.018 31.364C235.378 29.996 235.894 27.824 236.566 24.848C236.422 24.632 236.35 24.368 236.35 24.056C236.35 23.744 236.422 23.444 236.566 23.156C236.71 22.844 236.902 22.592 237.142 22.4L239.446 11.996ZM268.282 35.756C265.426 35.756 263.29 34.832 261.874 32.984C260.458 31.136 259.75 28.628 259.75 25.46C259.75 22.844 260.314 20.42 261.442 18.188C262.57 15.956 264.142 14.18 266.158 12.86C268.174 11.54 270.442 10.88 272.962 10.88C275.41 10.88 277.366 11.72 278.83 13.4C280.318 15.056 281.062 17.54 281.062 20.852C281.062 23.204 280.51 25.544 279.406 27.872C278.326 30.176 276.814 32.072 274.87 33.56C272.926 35.024 270.73 35.756 268.282 35.756ZM268.786 32.516C269.962 32.516 271.114 31.856 272.242 30.536C273.37 29.216 274.282 27.524 274.978 25.46C275.698 23.396 276.058 21.296 276.058 19.16C276.058 17.528 275.782 16.352 275.23 15.632C274.702 14.888 273.754 14.516 272.386 14.516C270.874 14.516 269.53 15.176 268.354 16.496C267.178 17.816 266.266 19.46 265.618 21.428C264.97 23.396 264.646 25.304 264.646 27.152C264.646 28.232 264.838 29.18 265.222 29.996C265.63 30.812 266.146 31.436 266.77 31.868C267.418 32.3 268.09 32.516 268.786 32.516ZM265.942 42.74C265.39 42.74 264.862 42.512 264.358 42.056C263.854 41.624 263.602 41.132 263.602 40.58C263.602 39.764 263.938 39.056 264.61 38.456C265.282 37.856 266.026 37.556 266.842 37.556C267.442 37.556 267.982 37.808 268.462 38.312C268.942 38.84 269.182 39.404 269.182 40.004C269.182 40.772 268.858 41.42 268.21 41.948C267.562 42.476 266.806 42.74 265.942 42.74ZM304.658 10.952C305.546 11.12 306.122 11.264 306.386 11.384C306.674 11.48 306.866 11.636 306.962 11.852C306.458 13.796 305.798 16.556 304.982 20.132C304.166 23.684 303.614 26.072 303.326 27.296C302.798 29.744 302.306 31.916 301.85 33.812C301.514 35.132 300.986 35.792 300.266 35.792C298.37 35.792 297.29 35.408 297.026 34.64L296.954 34.712L291.086 19.016L288.854 28.088C288.422 29.744 287.954 31.616 287.45 33.704C287.282 34.4 287.018 34.868 286.658 35.108C286.322 35.348 285.674 35.468 284.714 35.468C283.97 35.468 283.418 35.336 283.058 35.072C282.722 34.832 282.554 34.412 282.554 33.812C282.554 33.548 282.59 33.296 282.662 33.056L287.594 13.58C287.858 12.524 288.134 11.828 288.422 11.492C288.734 11.132 289.286 10.952 290.078 10.952C290.726 10.952 291.302 11.024 291.806 11.168C292.31 11.312 292.574 11.528 292.598 11.816V11.924L298.394 27.98C299.954 20.444 300.95 16.016 301.382 14.696C301.718 13.688 302.174 12.848 302.75 12.176C303.326 11.504 303.962 11.096 304.658 10.952ZM344.695 10.952C345.583 11.12 346.159 11.264 346.423 11.384C346.711 11.48 346.903 11.636 346.999 11.852C346.495 13.796 345.835 16.556 345.019 20.132C344.203 23.684 343.651 26.072 343.363 27.296C342.835 29.744 342.343 31.916 341.887 33.812C341.551 35.132 341.023 35.792 340.303 35.792C338.095 35.792 336.991 35.276 336.991 34.244C336.991 34.556 337.267 33.428 337.819 30.86C338.371 28.292 338.707 26.732 338.827 26.18L339.619 22.436L331.627 34.1C331.243 34.58 330.679 34.82 329.935 34.82C329.311 34.82 328.723 34.664 328.171 34.352C327.643 34.04 327.415 33.728 327.487 33.416C327.319 32.6 327.007 31.052 326.551 28.772C326.095 26.468 325.627 24.068 325.147 21.572L322.123 33.704C321.955 34.4 321.691 34.868 321.331 35.108C320.995 35.348 320.347 35.468 319.387 35.468C318.643 35.468 318.091 35.336 317.731 35.072C317.395 34.832 317.227 34.412 317.227 33.812C317.227 33.548 317.263 33.296 317.335 33.056L322.267 13.58C322.531 12.524 322.807 11.828 323.095 11.492C323.407 11.132 323.959 10.952 324.751 10.952C325.399 10.952 325.975 11.024 326.479 11.168C326.983 11.312 327.247 11.528 327.271 11.816V11.888L330.583 29.78L341.995 12.5C342.235 11.972 342.499 11.624 342.787 11.456C343.099 11.288 343.447 11.18 343.831 11.132C344.215 11.06 344.503 11 344.695 10.952ZM351.66 13.724C351.924 12.668 352.2 11.972 352.488 11.636C352.8 11.276 353.352 11.096 354.144 11.096C354.792 11.096 355.344 11.168 355.8 11.312C356.28 11.456 356.532 11.672 356.556 11.96C356.676 12.032 356.736 12.224 356.736 12.536C356.736 13.04 356.604 13.808 356.34 14.84C356.076 15.872 355.692 17.216 355.188 18.872C354.612 20.864 354.144 22.556 353.784 23.948C353.424 25.34 353.196 26.528 353.1 27.512L353.064 28.016C353.064 28.976 353.304 29.768 353.784 30.392C354.264 30.992 354.852 31.436 355.548 31.724C356.244 31.988 356.928 32.12 357.6 32.12C359.136 32.12 360.348 31.772 361.236 31.076C362.124 30.356 362.796 29.384 363.252 28.16C363.732 26.912 364.176 25.22 364.584 23.084C364.8 22.004 365.136 20.444 365.592 18.404C366.048 16.364 366.348 15.128 366.492 14.696C366.708 14.072 366.84 13.592 366.888 13.256C367.032 12.704 367.176 12.284 367.32 11.996C367.488 11.708 367.74 11.456 368.076 11.24C368.172 11.216 368.304 11.192 368.472 11.168C368.64 11.12 368.772 11.096 368.868 11.096C369.684 11.096 370.356 11.168 370.884 11.312C371.436 11.456 371.76 11.636 371.856 11.852C371.496 13.268 370.992 15.38 370.344 18.188C369.72 20.972 369.264 23.18 368.976 24.812C367.656 32.108 363.696 35.756 357.096 35.756C355.416 35.756 353.916 35.42 352.596 34.748C351.276 34.076 350.232 33.152 349.464 31.976C348.72 30.776 348.348 29.42 348.348 27.908C348.348 27.14 348.456 26.348 348.672 25.532L351.66 13.724ZM375.395 24.812C376.451 23.012 377.567 21.224 378.743 19.448C379.943 17.672 381.431 15.56 383.207 13.112C383.639 12.512 384.203 12.02 384.899 11.636C385.595 11.252 386.315 11.06 387.059 11.06C388.187 11.06 388.931 11.204 389.291 11.492C389.651 11.78 389.831 12.236 389.831 12.86L389.795 16.172C389.747 17.852 389.723 19.184 389.723 20.168C389.723 23.216 389.831 25.88 390.047 28.16C390.191 30.104 390.431 31.844 390.767 33.38C390.743 33.956 390.539 34.484 390.155 34.964C389.771 35.42 389.291 35.648 388.715 35.648C387.611 35.648 386.855 35.372 386.447 34.82C386.039 34.268 385.775 33.332 385.655 32.012C385.607 31.196 385.583 29.528 385.583 27.008C382.487 27.512 380.027 27.992 378.203 28.448C377.819 29.192 377.519 29.78 377.303 30.212C376.823 31.196 376.415 31.976 376.079 32.552C375.767 33.128 375.407 33.632 374.999 34.064C374.519 34.592 374.135 34.952 373.847 35.144C373.559 35.36 373.199 35.468 372.767 35.468C372.047 35.468 371.399 35.312 370.823 35C370.247 34.664 369.947 34.328 369.923 33.992C369.947 33.992 370.151 33.62 370.535 32.876C370.703 32.588 371.327 31.484 372.407 29.564C373.487 27.62 374.483 26.036 375.395 24.812ZM380.651 24.308C381.131 24.188 381.779 24.08 382.595 23.984L385.475 23.552C385.427 21.872 385.403 20.66 385.403 19.916C385.403 18.332 385.451 17.144 385.547 16.352C385.019 17.048 384.299 18.152 383.387 19.664C382.499 21.152 381.587 22.7 380.651 24.308ZM408.196 11.996C408.292 11.588 408.556 11.312 408.988 11.168C409.444 11.024 409.996 10.952 410.644 10.952C411.412 10.952 411.928 11.036 412.192 11.204C412.48 11.348 412.672 11.564 412.768 11.852C412.6 12.428 411.904 15.548 410.68 21.212C414.76 20.564 418.096 20.084 420.688 19.772L422.38 11.996C422.476 11.588 422.74 11.312 423.172 11.168C423.628 11.024 424.18 10.952 424.828 10.952C425.596 10.952 426.112 11.036 426.376 11.204C426.664 11.348 426.856 11.564 426.952 11.852C426.808 12.452 426.076 15.836 424.756 22.004C423.436 28.22 422.632 31.94 422.344 33.164C422.008 34.484 421.492 35.144 420.796 35.144C418.564 35.144 417.448 34.628 417.448 33.596L417.88 31.832C418.048 31.04 418.288 29.984 418.6 28.664C418.936 27.344 419.344 25.652 419.824 23.588C417.856 23.804 415.084 24.212 411.508 24.812C410.692 24.956 410.14 25.052 409.852 25.1C409.54 26.54 409.372 27.332 409.348 27.476C408.796 30.284 408.4 32.18 408.16 33.164C408.04 33.716 407.86 34.184 407.62 34.568C407.38 34.952 407.044 35.144 406.612 35.144C404.38 35.144 403.264 34.628 403.264 33.596C403.264 33.596 403.432 32.852 403.768 31.364C404.128 29.996 404.644 27.824 405.316 24.848C405.172 24.632 405.1 24.368 405.1 24.056C405.1 23.744 405.172 23.444 405.316 23.156C405.46 22.844 405.652 22.592 405.892 22.4L408.196 11.996ZM443.548 27.008C440.404 27.536 437.896 28.016 436.024 28.448C435.448 29.36 435.076 29.972 434.908 30.284C434.404 31.172 433.948 31.916 433.54 32.516C433.156 33.092 432.736 33.608 432.28 34.064C431.776 34.568 431.356 34.928 431.02 35.144C430.708 35.36 430.336 35.468 429.904 35.468C429.184 35.468 428.548 35.312 427.996 35C427.468 34.664 427.204 34.328 427.204 33.992C427.252 33.944 427.516 33.416 427.996 32.408C428.476 31.376 429.364 30.092 430.66 28.556C430.66 28.364 430.6 28.124 430.48 27.836C430.36 27.548 430.3 27.38 430.3 27.332C430.3 26.636 431.392 25.796 433.576 24.812C434.8 22.988 436.084 21.188 437.428 19.412C438.796 17.636 440.464 15.536 442.432 13.112C442.912 12.512 443.524 12.02 444.268 11.636C445.012 11.252 445.756 11.06 446.5 11.06C447.268 11.06 447.844 11.132 448.228 11.276C448.612 11.42 448.852 11.612 448.948 11.852C449.068 12.092 449.128 12.428 449.128 12.86C449.032 13.58 448.972 14.12 448.948 14.48C448.588 17.384 448.312 19.88 448.12 21.968C447.952 24.032 447.868 26.096 447.868 28.16C447.868 30.056 447.952 31.796 448.12 33.38C448.048 33.956 447.796 34.484 447.364 34.964C446.932 35.42 446.428 35.648 445.852 35.648C444.748 35.648 444.016 35.372 443.656 34.82C443.32 34.268 443.152 33.332 443.152 32.012C443.152 31.052 443.284 29.384 443.548 27.008ZM438.868 24.308C439.3 24.212 439.96 24.104 440.848 23.984L443.728 23.552C443.944 20.216 444.196 17.816 444.484 16.352C443.548 17.456 441.676 20.108 438.868 24.308ZM436.672 42.74C436.12 42.74 435.592 42.512 435.088 42.056C434.584 41.624 434.332 41.132 434.332 40.58C434.332 39.764 434.668 39.056 435.34 38.456C436.012 37.856 436.756 37.556 437.572 37.556C438.172 37.556 438.712 37.808 439.192 38.312C439.672 38.84 439.912 39.404 439.912 40.004C439.912 40.772 439.588 41.42 438.94 41.948C438.292 42.476 437.536 42.74 436.672 42.74ZM461.233 32.84C461.041 33.68 460.741 34.328 460.333 34.784C459.949 35.24 459.313 35.468 458.425 35.468C457.681 35.468 457.129 35.336 456.769 35.072C456.433 34.832 456.265 34.412 456.265 33.812C456.265 33.548 456.301 33.296 456.373 33.056L460.765 15.632C460.741 15.632 459.961 15.716 458.425 15.884C456.577 16.028 455.425 16.148 454.969 16.244C454.489 16.076 454.117 15.824 453.853 15.488C453.613 15.128 453.493 14.708 453.493 14.228C453.493 13.844 453.625 13.484 453.889 13.148C454.177 12.788 454.513 12.524 454.897 12.356C456.097 12.116 457.777 11.912 459.937 11.744C462.097 11.576 464.869 11.396 468.253 11.204C469.981 11.132 471.145 11.06 471.745 10.988C472.129 11.156 472.453 11.42 472.717 11.78C473.005 12.116 473.149 12.476 473.149 12.86C473.149 13.292 472.933 13.712 472.501 14.12C472.069 14.528 471.577 14.816 471.025 14.984L464.725 15.308C464.989 15.404 465.121 15.728 465.121 16.28C465.121 16.568 465.097 16.784 465.049 16.928C464.641 18.752 464.077 21.116 463.357 24.02C462.661 26.924 462.193 28.892 461.953 29.924C461.809 30.524 461.677 31.064 461.557 31.544C461.437 32.024 461.329 32.456 461.233 32.84ZM494.297 11.168C496.025 11.168 497.477 11.588 498.653 12.428C499.853 13.268 500.741 14.372 501.317 15.74C501.917 17.108 502.217 18.584 502.217 20.168C502.217 20.576 502.205 20.876 502.181 21.068C501.965 23.948 501.245 26.492 500.021 28.7C498.797 30.884 497.177 32.576 495.161 33.776C493.169 34.976 490.925 35.576 488.429 35.576C487.733 35.576 486.881 35.492 485.873 35.324C485.489 35.252 485.033 35 484.505 34.568C484.001 34.112 483.569 33.596 483.209 33.02C482.849 32.444 482.669 31.928 482.669 31.472C482.669 31.208 482.705 30.956 482.777 30.716L483.749 26.9L483.101 26.972H482.885C482.333 26.972 481.877 26.816 481.517 26.504C481.181 26.192 480.989 25.82 480.941 25.388L480.905 24.956C480.905 24.332 481.109 23.852 481.517 23.516C481.925 23.156 482.633 22.928 483.641 22.832L484.865 22.724L486.557 16.136C485.189 16.544 484.037 17.072 483.101 17.72C482.813 17.432 482.597 17.072 482.453 16.64C482.309 16.208 482.237 15.764 482.237 15.308C482.237 14.78 482.453 14.312 482.885 13.904C484.013 13.184 485.573 12.572 487.565 12.068C488.021 10.892 488.765 10.304 489.797 10.304C490.493 10.304 491.021 10.4 491.381 10.592C491.741 10.784 491.921 11.036 491.921 11.348C492.377 11.276 492.773 11.228 493.109 11.204C493.469 11.18 493.865 11.168 494.297 11.168ZM497.645 22.508C497.741 21.908 497.789 21.236 497.789 20.492C497.789 18.812 497.417 17.492 496.673 16.532C495.929 15.548 494.777 15.056 493.217 15.056C492.545 15.056 491.933 15.104 491.381 15.2L490.265 19.808L489.689 22.184C490.625 22.04 491.261 21.956 491.597 21.932H491.813C492.389 21.932 492.857 22.112 493.217 22.472C493.577 22.808 493.781 23.228 493.829 23.732V23.912C493.829 24.416 493.637 24.848 493.253 25.208C492.893 25.568 492.389 25.82 491.741 25.964L488.609 26.396C488.105 28.316 487.661 30.044 487.277 31.58C487.853 31.724 488.477 31.796 489.149 31.796C490.829 31.796 492.269 31.34 493.469 30.428C494.669 29.492 495.605 28.316 496.277 26.9C496.973 25.484 497.429 24.02 497.645 22.508ZM506.669 16.352C506.189 16.184 505.817 15.932 505.553 15.596C505.313 15.236 505.193 14.816 505.193 14.336C505.193 13.64 505.661 13.088 506.597 12.68C510.029 11.984 513.485 11.492 516.965 11.204C517.901 11.612 518.369 12.164 518.369 12.86C518.369 13.292 518.153 13.712 517.721 14.12C517.289 14.528 516.797 14.816 516.245 14.984L514.265 15.236C513.857 17.036 512.921 20.912 511.457 26.864L510.449 30.896L513.221 30.608C514.157 31.016 514.625 31.568 514.625 32.264C514.625 32.696 514.409 33.116 513.977 33.524C513.545 33.932 513.053 34.22 512.501 34.388L511.061 34.568C507.533 34.952 504.821 35.348 502.925 35.756C502.445 35.588 502.084 35.336 501.844 35C501.58 34.64 501.448 34.22 501.448 33.74C501.448 33.044 501.917 32.492 502.853 32.084C504.053 31.844 504.965 31.676 505.589 31.58L509.549 15.848C508.565 15.992 507.605 16.16 506.669 16.352ZM522.346 3.068C521.626 2.588 521.146 2.24 520.906 2.024C520.666 1.784 520.546 1.556 520.546 1.34C520.546 1.1 520.894 0.823998 521.59 0.511998C522.31 0.175998 522.862 0.00799775 523.246 0.00799775C523.51 0.00799775 524.002 0.463998 524.722 1.376C525.466 2.288 526.114 3.164 526.666 4.004C526.714 4.1 526.738 4.196 526.738 4.292C526.738 4.58 526.666 4.784 526.522 4.904C526.378 5.024 526.138 5.084 525.802 5.084C525.49 5.084 525.178 5 524.866 4.832C524.578 4.664 524.146 4.364 523.57 3.932L522.346 3.068ZM525.19 8.54C525.19 8.276 525.226 8.036 525.298 7.82C525.394 7.604 525.61 7.364 525.946 7.1L526.738 6.452C528.538 4.964 529.774 3.968 530.446 3.464C530.806 3.176 531.346 3.032 532.066 3.032C532.546 3.032 532.966 3.152 533.326 3.392C533.71 3.608 534.178 4.076 534.73 4.796L536.566 7.172C536.806 7.484 536.926 7.784 536.926 8.072C536.926 8.456 536.734 8.792 536.35 9.08C535.99 9.344 535.558 9.476 535.054 9.476C534.574 9.476 534.118 9.224 533.686 8.72L531.706 6.344C530.266 7.592 529.198 8.468 528.502 8.972C527.83 9.476 527.338 9.728 527.026 9.728C526.546 9.728 526.114 9.62 525.73 9.404C525.37 9.188 525.19 8.9 525.19 8.54ZM537.07 10.664C537.934 11.12 538.366 11.696 538.366 12.392C538.366 12.824 538.126 13.232 537.646 13.616C537.19 13.976 536.674 14.228 536.098 14.372L534.514 14.48C533.794 14.528 532.822 14.6 531.598 14.696C530.374 14.768 528.934 14.876 527.278 15.02L525.658 21.464C527.17 21.224 528.418 21.032 529.402 20.888C530.41 20.744 531.526 20.624 532.75 20.528C533.686 20.936 534.154 21.488 534.154 22.184C534.154 22.616 533.938 23.036 533.506 23.444C533.074 23.852 532.582 24.14 532.03 24.308L529.978 24.524C527.794 24.764 526.042 25.004 524.722 25.244C524.434 26.564 524.026 28.232 523.498 30.248L523.21 31.364C526.402 30.764 529.486 30.344 532.462 30.104C533.398 30.512 533.866 31.064 533.866 31.76C533.866 32.192 533.65 32.612 533.218 33.02C532.786 33.428 532.294 33.716 531.742 33.884C527.182 34.412 523.966 34.856 522.094 35.216C521.878 35.36 521.41 35.432 520.69 35.432C520.018 35.432 519.418 35.12 518.89 34.496C518.386 33.872 518.134 33.224 518.134 32.552C518.134 32.288 518.17 32.036 518.242 31.796L522.346 15.56H522.238C522.214 15.296 522.046 14.972 521.734 14.588C521.71 14.54 521.614 14.396 521.446 14.156C521.278 13.892 521.194 13.64 521.194 13.4C521.242 12.704 521.698 12.152 522.562 11.744C524.362 11.504 526.882 11.276 530.122 11.06C533.362 10.82 535.678 10.688 537.07 10.664ZM540.695 13.724C540.959 12.668 541.235 11.972 541.523 11.636C541.835 11.276 542.387 11.096 543.179 11.096C543.827 11.096 544.379 11.168 544.835 11.312C545.315 11.456 545.567 11.672 545.591 11.96C545.711 12.032 545.771 12.224 545.771 12.536C545.771 13.04 545.639 13.808 545.375 14.84C545.111 15.872 544.727 17.216 544.223 18.872C543.647 20.864 543.179 22.556 542.819 23.948C542.459 25.34 542.231 26.528 542.135 27.512L542.099 28.016C542.099 28.976 542.339 29.768 542.819 30.392C543.299 30.992 543.887 31.436 544.583 31.724C545.279 31.988 545.963 32.12 546.635 32.12C548.171 32.12 549.383 31.772 550.271 31.076C551.159 30.356 551.831 29.384 552.287 28.16C552.767 26.912 553.211 25.22 553.619 23.084C553.835 22.004 554.171 20.444 554.627 18.404C555.083 16.364 555.383 15.128 555.527 14.696C555.743 14.072 555.875 13.592 555.923 13.256C556.067 12.704 556.211 12.284 556.355 11.996C556.523 11.708 556.775 11.456 557.111 11.24C557.207 11.216 557.339 11.192 557.507 11.168C557.675 11.12 557.807 11.096 557.903 11.096C558.719 11.096 559.391 11.168 559.919 11.312C560.471 11.456 560.795 11.636 560.891 11.852C560.531 13.268 560.027 15.38 559.379 18.188C558.755 20.972 558.299 23.18 558.011 24.812C556.691 32.108 552.731 35.756 546.131 35.756C544.451 35.756 542.951 35.42 541.631 34.748C540.311 34.076 539.267 33.152 538.499 31.976C537.755 30.776 537.383 29.42 537.383 27.908C537.383 27.14 537.491 26.348 537.707 25.532L540.695 13.724ZM590.226 28.736C589.866 29.816 589.146 30.908 588.066 32.012C587.01 33.092 585.666 33.992 584.034 34.712C582.426 35.408 580.662 35.756 578.742 35.756C575.814 35.756 573.666 35.048 572.298 33.632C570.93 32.192 570.246 30.356 570.246 28.124C570.246 24.956 570.954 22.088 572.37 19.52C573.786 16.928 575.694 14.9 578.094 13.436C580.494 11.948 583.086 11.204 585.87 11.204C586.974 11.204 587.982 11.456 588.894 11.96C589.806 12.464 590.526 13.196 591.054 14.156C591.582 15.092 591.846 16.196 591.846 17.468C591.846 18.188 591.57 18.8 591.018 19.304C590.49 19.808 589.77 20.06 588.858 20.06C588.138 20.06 587.646 19.868 587.382 19.484C587.142 19.1 587.022 18.608 587.022 18.008L587.058 16.856C587.058 16.424 586.818 16.004 586.338 15.596C585.858 15.188 585.414 14.984 585.006 14.984C583.662 14.984 582.186 15.596 580.578 16.82C578.97 18.02 577.614 19.652 576.51 21.716C575.406 23.756 574.854 25.976 574.854 28.376C574.854 29.48 575.286 30.38 576.15 31.076C577.014 31.772 578.106 32.12 579.426 32.12C579.858 32.12 580.422 31.976 581.118 31.688C581.814 31.4 582.45 31.04 583.026 30.608C583.626 30.176 584.022 29.756 584.214 29.348C584.502 28.748 584.91 28.076 585.438 27.332C585.966 26.588 586.494 26.216 587.022 26.216C588.246 26.216 589.074 26.48 589.506 27.008C589.962 27.536 590.202 28.112 590.226 28.736ZM598.039 24.812C599.095 23.012 600.211 21.224 601.387 19.448C602.587 17.672 604.075 15.56 605.851 13.112C606.283 12.512 606.847 12.02 607.543 11.636C608.239 11.252 608.959 11.06 609.703 11.06C610.831 11.06 611.575 11.204 611.935 11.492C612.295 11.78 612.475 12.236 612.475 12.86L612.439 16.172C612.391 17.852 612.367 19.184 612.367 20.168C612.367 23.216 612.475 25.88 612.691 28.16C612.835 30.104 613.075 31.844 613.411 33.38C613.387 33.956 613.183 34.484 612.799 34.964C612.415 35.42 611.935 35.648 611.359 35.648C610.255 35.648 609.499 35.372 609.091 34.82C608.683 34.268 608.419 33.332 608.299 32.012C608.251 31.196 608.227 29.528 608.227 27.008C605.131 27.512 602.671 27.992 600.847 28.448C600.463 29.192 600.163 29.78 599.947 30.212C599.467 31.196 599.059 31.976 598.723 32.552C598.411 33.128 598.051 33.632 597.643 34.064C597.163 34.592 596.779 34.952 596.491 35.144C596.203 35.36 595.843 35.468 595.411 35.468C594.691 35.468 594.043 35.312 593.467 35C592.891 34.664 592.591 34.328 592.567 33.992C592.591 33.992 592.795 33.62 593.179 32.876C593.347 32.588 593.971 31.484 595.051 29.564C596.131 27.62 597.127 26.036 598.039 24.812ZM603.295 24.308C603.775 24.188 604.423 24.08 605.239 23.984L608.119 23.552C608.071 21.872 608.047 20.66 608.047 19.916C608.047 18.332 608.095 17.144 608.191 16.352C607.663 17.048 606.943 18.152 606.031 19.664C605.143 21.152 604.231 22.7 603.295 24.308ZM624.117 18.728C624.117 19.472 624.381 20.048 624.909 20.456C625.461 20.84 626.301 21.272 627.429 21.752L628.725 22.292L629.805 22.796C631.101 23.372 632.121 23.9 632.865 24.38C633.633 24.836 634.281 25.472 634.809 26.288C635.337 27.104 635.601 28.148 635.601 29.42C635.601 30.788 635.145 31.976 634.233 32.984C633.345 33.968 632.097 34.712 630.489 35.216C628.881 35.744 627.009 36.008 624.873 36.008C623.289 36.008 621.801 35.756 620.409 35.252C619.041 34.772 617.949 34.16 617.133 33.416C616.341 32.672 615.945 31.94 615.945 31.22C615.945 30.524 616.245 29.96 616.845 29.528C617.445 29.072 618.297 28.76 619.401 28.592C619.521 29.288 619.929 29.912 620.625 30.464C621.321 31.016 622.125 31.46 623.037 31.796C623.973 32.108 624.789 32.264 625.485 32.264C626.757 32.264 627.885 32.012 628.869 31.508C629.877 31.004 630.381 30.308 630.381 29.42C630.381 28.676 630.021 28.064 629.301 27.584C628.605 27.08 627.549 26.54 626.133 25.964L624.225 25.1C622.665 24.332 621.429 23.468 620.517 22.508C619.605 21.548 619.149 20.276 619.149 18.692C619.149 17.276 619.533 16.016 620.301 14.912C621.093 13.784 622.233 12.908 623.721 12.284C625.233 11.636 627.021 11.312 629.085 11.312C630.669 11.312 632.085 11.552 633.333 12.032C634.581 12.512 635.553 13.124 636.249 13.868C636.945 14.612 637.293 15.356 637.293 16.1C637.293 16.772 637.017 17.312 636.465 17.72C635.937 18.104 635.301 18.296 634.557 18.296C634.269 18.296 634.065 18.236 633.945 18.116C633.825 17.972 633.741 17.828 633.693 17.684C633.645 17.516 633.597 17.396 633.549 17.324C633.093 16.556 632.481 15.992 631.713 15.632C630.969 15.248 630.153 15.056 629.265 15.056C627.681 15.056 626.421 15.416 625.485 16.136C624.573 16.856 624.117 17.72 624.117 18.728ZM644.095 11.996C644.191 11.588 644.455 11.312 644.887 11.168C645.343 11.024 645.895 10.952 646.543 10.952C647.311 10.952 647.827 11.036 648.091 11.204C648.379 11.348 648.571 11.564 648.667 11.852C648.499 12.428 647.803 15.548 646.579 21.212C650.659 20.564 653.995 20.084 656.587 19.772L658.279 11.996C658.375 11.588 658.639 11.312 659.071 11.168C659.527 11.024 660.079 10.952 660.727 10.952C661.495 10.952 662.011 11.036 662.275 11.204C662.563 11.348 662.755 11.564 662.851 11.852C662.707 12.452 661.975 15.836 660.655 22.004C659.335 28.22 658.531 31.94 658.243 33.164C657.907 34.484 657.391 35.144 656.695 35.144C654.463 35.144 653.347 34.628 653.347 33.596L653.779 31.832C653.947 31.04 654.187 29.984 654.499 28.664C654.835 27.344 655.243 25.652 655.723 23.588C653.755 23.804 650.983 24.212 647.407 24.812C646.591 24.956 646.039 25.052 645.751 25.1C645.439 26.54 645.271 27.332 645.247 27.476C644.695 30.284 644.299 32.18 644.059 33.164C643.939 33.716 643.759 34.184 643.519 34.568C643.279 34.952 642.943 35.144 642.511 35.144C640.279 35.144 639.163 34.628 639.163 33.596C639.163 33.596 639.331 32.852 639.667 31.364C640.027 29.996 640.543 27.824 641.215 24.848C641.071 24.632 640.999 24.368 640.999 24.056C640.999 23.744 641.071 23.444 641.215 23.156C641.359 22.844 641.551 22.592 641.791 22.4L644.095 11.996ZM669.439 15.56C669.415 15.344 669.235 15.02 668.899 14.588C668.875 14.54 668.779 14.396 668.611 14.156C668.443 13.892 668.347 13.64 668.323 13.4C668.371 12.704 668.815 12.152 669.655 11.744C671.455 11.504 673.975 11.276 677.215 11.06C680.455 10.82 682.771 10.688 684.163 10.664C685.051 11.12 685.495 11.696 685.495 12.392C685.495 12.824 685.267 13.232 684.811 13.616C684.355 13.976 683.839 14.228 683.263 14.372L681.679 14.48C680.935 14.528 679.951 14.6 678.727 14.696C677.527 14.768 676.099 14.876 674.443 15.02C674.107 16.7 673.711 18.452 673.255 20.276C674.791 20.036 676.051 19.844 677.035 19.7C678.043 19.556 679.147 19.436 680.347 19.34C681.307 19.724 681.787 20.288 681.787 21.032C681.787 21.464 681.571 21.884 681.139 22.292C680.731 22.676 680.251 22.952 679.699 23.12L677.683 23.336C675.523 23.576 673.771 23.816 672.427 24.056L671.059 29.42C671.035 29.564 671.011 29.744 670.987 29.96C670.963 30.152 670.951 30.32 670.951 30.464C670.951 31.16 671.551 31.508 672.751 31.508C673.591 31.508 674.419 31.448 675.235 31.328C676.051 31.184 677.107 30.98 678.403 30.716L679.699 30.464C680.059 30.632 680.383 30.92 680.671 31.328C680.959 31.736 681.103 32.132 681.103 32.516C681.103 32.948 680.887 33.368 680.455 33.776C680.023 34.184 679.543 34.472 679.015 34.64C677.719 34.928 676.303 35.18 674.767 35.396C673.231 35.612 671.791 35.72 670.447 35.72C669.199 35.72 668.119 35.432 667.207 34.856C666.295 34.28 665.839 33.32 665.839 31.976C665.839 31.424 665.923 30.788 666.091 30.068L669.439 15.56ZM697.292 24.164C696.548 26.54 695.684 28.592 694.7 30.32C693.716 32.048 692.696 33.368 691.64 34.28C690.584 35.192 689.576 35.648 688.616 35.648C686.408 35.648 685.304 33.38 685.304 28.844C685.304 26.06 685.64 23.3 686.312 20.564C686.984 17.804 687.728 15.44 688.544 13.472C688.784 12.848 689.096 12.356 689.48 11.996C689.864 11.612 690.404 11.42 691.1 11.42C691.748 11.42 692.264 11.588 692.648 11.924C693.032 12.236 693.224 12.716 693.224 13.364L693.188 13.796C693.188 13.844 693.044 14.24 692.756 14.984C692.036 16.928 691.388 18.788 690.812 20.564C690.26 22.34 689.912 24.032 689.768 25.64C689.696 26.456 689.66 27.26 689.66 28.052C689.66 28.844 689.744 29.492 689.912 29.996C690.08 30.476 690.32 30.716 690.632 30.716C691.328 30.716 692.168 29.72 693.152 27.728C694.16 25.712 695.12 23.312 696.032 20.528C696.944 17.72 697.616 15.26 698.048 13.148C698.144 12.692 698.42 12.308 698.876 11.996C699.332 11.684 699.728 11.528 700.064 11.528C700.664 11.528 701.096 11.684 701.36 11.996C701.648 12.284 701.792 12.74 701.792 13.364L701.756 13.868C701.756 13.964 701.732 14.096 701.684 14.264C701.636 14.432 701.588 14.648 701.54 14.912C700.388 20.384 699.692 24.464 699.452 27.152C699.428 27.344 699.416 27.632 699.416 28.016C699.416 28.832 699.524 29.492 699.74 29.996C699.98 30.476 700.28 30.716 700.64 30.716C701.816 30.716 703.004 28.892 704.204 25.244C705.404 21.572 706.472 17.504 707.408 13.04C707.504 12.608 707.708 12.296 708.02 12.104C708.356 11.888 708.752 11.78 709.208 11.78C709.784 11.78 710.372 11.9 710.972 12.14C711.572 12.38 711.872 12.644 711.872 12.932L711.296 15.452C710.408 19.388 709.508 22.748 708.596 25.532C707.708 28.316 706.532 30.704 705.068 32.696C703.628 34.664 701.876 35.648 699.812 35.648C697.796 35.648 696.788 33.8 696.788 30.104C696.788 28.4 697.004 26.42 697.436 24.164H697.292ZM715.813 16.352C715.333 16.184 714.961 15.932 714.697 15.596C714.457 15.236 714.337 14.816 714.337 14.336C714.337 13.64 714.805 13.088 715.741 12.68C719.173 11.984 722.629 11.492 726.109 11.204C727.045 11.612 727.513 12.164 727.513 12.86C727.513 13.292 727.297 13.712 726.865 14.12C726.433 14.528 725.941 14.816 725.389 14.984L723.409 15.236C723.001 17.036 722.065 20.912 720.601 26.864L719.593 30.896L722.365 30.608C723.301 31.016 723.769 31.568 723.769 32.264C723.769 32.696 723.553 33.116 723.121 33.524C722.689 33.932 722.197 34.22 721.645 34.388L720.205 34.568C716.677 34.952 713.965 35.348 712.069 35.756C711.589 35.588 711.229 35.336 710.989 35C710.725 34.64 710.593 34.22 710.593 33.74C710.593 33.044 711.061 32.492 711.997 32.084C713.197 31.844 714.109 31.676 714.733 31.58L718.693 15.848C717.709 15.992 716.749 16.16 715.813 16.352ZM746.574 10.808C747.87 10.808 748.518 11.48 748.518 12.824C748.518 13.136 748.506 13.352 748.482 13.472L748.41 13.868C748.386 14.06 748.302 14.216 748.158 14.336C748.038 14.456 747.786 14.624 747.402 14.84C747.306 14.912 747.114 15.032 746.826 15.2C746.538 15.368 746.274 15.56 746.034 15.776C745.698 16.064 744.93 16.928 743.73 18.368C742.554 19.784 741.774 20.72 741.39 21.176L739.59 23.372C739.83 23.708 740.682 24.8 742.146 26.648L744.126 29.24C745.902 31.64 746.778 33.152 746.754 33.776C746.754 34.16 746.598 34.508 746.286 34.82C745.878 35.18 745.422 35.36 744.918 35.36C744.342 35.36 743.502 34.808 742.398 33.704C740.646 32 738.702 29.78 736.566 27.044C734.598 29.396 732.99 31.268 731.742 32.66C730.518 34.052 729.666 34.916 729.186 35.252C728.61 35.612 728.07 35.792 727.566 35.792C727.422 35.792 727.314 35.768 727.242 35.72C727.17 35.672 727.074 35.576 726.954 35.432C726.834 35.288 726.678 35.144 726.486 35C725.982 34.616 725.73 34.208 725.73 33.776V33.632C725.802 33.368 725.874 33.188 725.946 33.092L726.702 32.444C727.254 31.964 728.118 31.028 729.294 29.636C730.494 28.22 732.102 26.276 734.118 23.804C730.95 19.388 729.258 16.232 729.042 14.336C729.018 14.216 729.006 14.036 729.006 13.796C729.006 13.364 729.054 13.052 729.15 12.86C729.27 12.644 729.45 12.488 729.69 12.392C730.626 11.984 731.442 11.78 732.138 11.78C733.098 11.78 733.71 12.164 733.974 12.932C733.974 13.076 733.998 13.292 734.046 13.58C734.214 15.068 735.258 17.216 737.178 20.024C740.442 16.016 742.578 13.52 743.586 12.536C744.786 11.384 745.782 10.808 746.574 10.808Z" fill="#D97706"/>
</svg>
